<svg xmlns="http://www.w3.org/2000/svg" xmlns:xlink="http://www.w3.org/1999/xlink" xmlns:a="http://ns.adobe.com/AdobeSVGViewerExtensions/3.0/"><symbol id="svg-fb">
<path d="M2.247,6.005 L-0.000,6.005 L-0.000,9.007 L2.247,9.007 L2.247,18.012 L5.994,18.012 L5.994,9.007 L8.723,9.007 L8.991,6.005 L5.994,6.005 C5.994,6.005 5.994,5.351 5.994,4.754 C5.994,4.037 6.139,3.753 6.830,3.753 C7.388,3.753 8.991,3.753 8.991,3.753 L8.991,0.002 C8.991,0.002 6.580,0.002 6.139,0.002 C3.443,0.002 2.247,1.189 2.247,3.465 C2.247,5.447 2.247,6.005 2.247,6.005 Z"/>
</symbol><symbol id="svg-insta">
<path d="M10.005,1.794 C12.676,1.794 12.992,1.803 14.047,1.851 C16.757,1.974 18.023,3.248 18.146,5.915 C18.194,6.961 18.204,7.275 18.204,9.922 C18.204,12.570 18.194,12.883 18.146,13.928 C18.022,16.593 16.759,17.870 14.047,17.993 C12.992,18.041 12.677,18.050 10.005,18.050 C7.335,18.050 7.018,18.041 5.965,17.993 C3.248,17.870 1.988,16.589 1.866,13.928 C1.817,12.882 1.807,12.569 1.807,9.921 C1.807,7.274 1.818,6.961 1.866,5.915 C1.989,3.248 3.252,1.973 5.965,1.850 C7.019,1.803 7.335,1.794 10.005,1.794 ZM10.005,0.006 C7.289,0.006 6.949,0.018 5.883,0.066 C2.251,0.231 0.233,2.229 0.066,5.833 C0.017,6.891 0.005,7.228 0.005,9.921 C0.005,12.614 0.017,12.952 0.065,14.009 C0.232,17.610 2.247,19.611 5.882,19.777 C6.949,19.825 7.289,19.836 10.005,19.836 C12.721,19.836 13.062,19.825 14.129,19.777 C17.757,19.611 19.781,17.614 19.944,14.009 C19.994,12.952 20.006,12.614 20.006,9.921 C20.006,7.228 19.994,6.891 19.946,5.834 C19.783,2.236 17.765,0.232 14.129,0.067 C13.062,0.018 12.721,0.006 10.005,0.006 ZM10.005,4.830 C7.169,4.830 4.870,7.109 4.870,9.921 C4.870,12.733 7.169,15.013 10.005,15.013 C12.841,15.013 15.141,12.734 15.141,9.921 C15.141,7.109 12.841,4.830 10.005,4.830 ZM10.005,13.226 C8.165,13.226 6.672,11.747 6.672,9.921 C6.672,8.096 8.165,6.616 10.005,6.616 C11.846,6.616 13.339,8.096 13.339,9.921 C13.339,11.747 11.846,13.226 10.005,13.226 ZM15.344,3.439 C14.681,3.439 14.143,3.972 14.143,4.629 C14.143,5.286 14.681,5.819 15.344,5.819 C16.007,5.819 16.543,5.286 16.543,4.629 C16.543,3.972 16.007,3.439 15.344,3.439 Z"/>
</symbol><symbol id="svg-link" viewBox="0 0 55.5 55.6">
<path d="M34.6,38.3c-0.5,0.8-1.1,1.5-1.7,2.2L21.6,51.8C16.4,57,8.5,56.8,3.7,52c-5-5-4.9-12.8,0.2-17.9l11.3-11.3
	c5.8-5.8,16.1-4.7,20,3.1c0.2,0.4,0.1,0.8-0.2,1.1c-1.3,1.3-2.8,2-4.6,1.5c-0.4-0.1-0.8-0.4-1.1-0.7c-2-3.1-6.9-3.8-9.9-0.8L8,38.3
	c-2.7,2.6-3,6.6-0.2,9.4c2.7,2.7,6.9,2.6,9.4-0.2l9.6-9.6C29.4,38.7,32.2,38.8,34.6,38.3z M51.9,3.7c-5-5-12.8-4.9-17.9,0.2
	L22.6,15.2c-0.7,0.7-1.2,1.4-1.7,2.2c3-0.6,5.4-0.2,7.7,0.4l9.6-9.6c2.7-2.7,6.7-2.9,9.4-0.2c2.7,2.7,2.6,6.9-0.2,9.4L36.1,28.7
	c-3,3-7.9,2.2-9.9-0.9c-0.3-0.4-0.6-0.6-1.1-0.7c-1.8-0.5-3.3,0.2-4.6,1.5c-0.3,0.3-0.4,0.8-0.2,1.1c3.4,6.7,12.3,9.7,20,3.1
	l11.3-11.3C56.2,16.9,57.2,9.2,51.9,3.7z"/>
</symbol><symbol id="svg-live">
<path d="M75.783,37.132 C75.662,38.154 75.347,39.084 74.838,39.924 C74.327,40.765 73.771,41.515 73.172,42.175 C72.571,42.836 72.031,43.390 71.551,43.841 C71.070,44.291 70.831,44.577 70.831,44.696 C70.831,44.757 70.890,44.786 71.011,44.786 L71.101,44.786 C70.380,45.628 69.554,46.513 68.624,47.443 C67.693,48.374 66.898,49.169 66.238,49.829 C65.338,50.670 64.361,51.405 63.312,52.035 C62.261,52.665 61.135,53.129 59.935,53.431 C59.514,53.550 59.125,53.640 58.764,53.701 C58.404,53.760 58.013,53.791 57.594,53.791 C56.333,53.791 55.282,53.460 54.442,52.800 C53.841,52.320 53.286,51.841 52.776,51.360 C52.266,50.880 51.860,50.310 51.561,49.649 C51.260,48.928 51.111,48.268 51.111,47.668 C51.111,47.428 51.111,47.188 51.111,46.947 C51.111,46.708 51.140,46.438 51.201,46.137 C51.260,45.837 51.291,45.583 51.291,45.371 C51.291,45.162 51.350,44.907 51.471,44.606 L51.651,42.445 C51.831,41.905 52.011,41.380 52.191,40.869 C52.371,40.360 52.551,39.865 52.731,39.383 L52.731,38.843 C52.851,38.724 52.911,38.634 52.911,38.573 C52.911,38.514 52.896,38.453 52.866,38.393 C52.836,38.334 52.821,38.273 52.821,38.213 C52.821,38.154 52.806,38.123 52.776,38.123 C52.745,38.123 52.731,38.093 52.731,38.033 L53.092,37.673 C53.211,37.553 53.331,37.433 53.452,37.312 C53.571,37.193 53.691,37.073 53.812,36.952 C54.112,36.412 54.411,35.858 54.712,35.286 C55.012,34.717 55.372,34.161 55.793,33.620 C56.633,32.360 57.684,31.099 58.945,29.839 C59.724,28.938 60.655,28.188 61.736,27.587 C62.216,27.168 62.756,26.928 63.357,26.867 C63.656,26.808 63.911,26.777 64.122,26.777 C64.332,26.777 64.527,26.777 64.707,26.777 C65.728,26.777 66.688,27.018 67.589,27.497 C68.669,28.159 69.120,29.089 68.940,30.289 L68.940,30.559 C68.760,31.400 68.399,32.301 67.859,33.260 C67.378,33.981 66.898,34.672 66.418,35.331 C65.937,35.993 65.338,36.562 64.617,37.042 C63.776,37.643 62.921,38.154 62.051,38.573 C61.180,38.994 60.325,39.324 59.485,39.564 L58.404,39.834 C58.044,39.894 57.713,40.164 57.414,40.644 L55.793,47.578 L55.793,47.938 C55.732,48.478 55.793,49.108 55.973,49.829 C55.973,50.369 56.302,50.639 56.964,50.639 L57.684,50.639 C58.524,50.459 59.364,50.220 60.205,49.919 C61.045,49.619 61.856,49.229 62.636,48.748 C63.416,48.268 64.167,47.744 64.888,47.172 C65.608,46.603 66.328,45.988 67.049,45.326 C67.468,44.966 68.024,44.532 68.715,44.021 C69.404,43.511 69.989,43.016 70.470,42.535 C71.130,41.875 71.731,41.229 72.271,40.599 C72.812,39.969 73.352,39.324 73.892,38.663 C74.192,38.183 74.507,37.704 74.838,37.222 C75.167,36.743 75.482,36.263 75.783,35.782 C75.842,36.263 75.842,36.713 75.783,37.132 ZM58.404,32.270 C58.224,32.391 58.134,32.540 58.134,32.720 C57.833,32.900 57.623,33.111 57.504,33.350 C57.383,33.591 57.263,33.861 57.144,34.161 C57.023,34.221 56.948,34.282 56.919,34.341 C56.888,34.401 56.813,34.491 56.693,34.611 C56.453,34.852 56.243,35.241 56.063,35.782 C56.482,35.482 56.693,35.092 56.693,34.611 C56.993,34.552 57.144,34.401 57.144,34.161 C57.623,33.681 57.984,33.201 58.224,32.720 C58.344,32.600 58.404,32.450 58.404,32.270 C58.824,32.150 59.035,31.910 59.035,31.549 C58.733,31.730 58.524,31.970 58.404,32.270 ZM59.125,31.549 L59.485,31.099 C59.244,31.160 59.125,31.310 59.125,31.549 ZM59.755,30.829 C59.875,30.709 59.935,30.559 59.935,30.379 L59.755,30.829 ZM66.508,33.801 C66.508,33.777 66.525,33.753 66.544,33.729 C66.472,33.779 66.400,33.819 66.328,33.891 C66.387,33.891 66.418,33.877 66.418,33.846 C66.418,33.816 66.448,33.801 66.508,33.801 ZM66.328,33.981 C65.847,34.161 65.547,34.552 65.428,35.151 C65.908,34.912 66.207,34.521 66.328,33.981 ZM64.347,34.881 L64.437,34.881 C64.557,34.822 64.647,34.762 64.707,34.701 C64.767,34.642 64.857,34.552 64.978,34.431 C65.217,34.251 65.428,34.041 65.608,33.801 C65.788,33.561 65.937,33.321 66.058,33.080 C66.178,32.961 66.252,32.826 66.283,32.675 C66.313,32.526 66.358,32.391 66.418,32.270 C66.238,32.270 66.133,32.346 66.103,32.495 C66.072,32.645 65.998,32.751 65.878,32.810 L65.608,32.990 C65.547,32.990 65.518,32.961 65.518,32.900 L65.608,32.720 L65.338,32.990 C65.217,33.231 65.158,33.381 65.158,33.440 L65.338,33.440 C65.158,33.620 65.007,33.922 64.888,34.341 C64.827,34.462 64.737,34.536 64.617,34.566 C64.496,34.597 64.406,34.672 64.347,34.791 L64.347,34.881 ZM60.025,36.502 C60.325,36.382 60.565,36.277 60.745,36.187 C60.926,36.097 61.106,35.993 61.286,35.872 C62.006,35.331 62.681,34.762 63.312,34.161 C63.942,33.561 64.467,32.871 64.888,32.090 C65.367,31.369 65.698,30.709 65.878,30.109 L65.878,30.019 C65.878,29.839 65.757,29.749 65.518,29.749 L65.338,29.749 L64.978,30.019 C64.617,30.199 64.302,30.410 64.032,30.649 C63.762,30.890 63.476,31.130 63.177,31.369 C62.515,32.090 61.930,32.826 61.421,33.575 C60.910,34.327 60.415,35.122 59.935,35.962 C59.875,36.022 59.845,36.112 59.845,36.232 L59.755,36.322 C59.755,36.443 59.845,36.502 60.025,36.502 ZM60.115,33.260 C60.295,33.201 60.415,33.080 60.475,32.900 C60.895,32.420 61.331,31.970 61.781,31.549 C62.231,31.130 62.636,30.680 62.997,30.199 L62.997,30.019 C62.876,30.019 62.786,30.050 62.726,30.109 C62.245,30.590 61.766,31.070 61.286,31.549 C60.805,32.031 60.415,32.600 60.115,33.260 C59.994,33.381 59.875,33.530 59.755,33.711 C59.994,33.651 60.115,33.501 60.115,33.260 ZM59.575,33.981 C59.634,33.922 59.665,33.832 59.665,33.711 C59.665,33.771 59.649,33.801 59.620,33.801 C59.589,33.801 59.575,33.832 59.575,33.891 L59.575,33.981 ZM56.873,36.142 C56.993,36.022 57.099,35.858 57.189,35.647 C57.279,35.437 57.414,35.272 57.594,35.151 C58.193,34.251 58.809,33.366 59.440,32.495 C60.070,31.625 60.805,30.770 61.646,29.929 L61.646,29.568 L61.376,29.749 C61.255,29.870 61.090,30.005 60.881,30.154 C60.669,30.304 60.505,30.469 60.385,30.649 C59.785,31.310 59.215,32.000 58.674,32.720 C58.134,33.440 57.623,34.192 57.144,34.971 C56.964,35.272 56.813,35.556 56.693,35.827 C56.572,36.097 56.453,36.412 56.333,36.772 L56.873,36.142 ZM55.883,36.052 L56.063,35.872 C56.003,35.872 55.973,35.887 55.973,35.917 C55.973,35.948 55.942,35.962 55.883,35.962 L55.883,36.052 ZM72.586,42.265 C72.677,42.206 72.722,42.116 72.722,41.995 L72.361,42.445 C72.420,42.386 72.496,42.325 72.586,42.265 ZM72.271,42.535 C72.091,42.715 72.001,42.866 72.001,42.985 L72.271,42.535 ZM67.499,46.317 L67.499,46.407 L67.589,46.317 C67.648,46.258 67.769,46.182 67.949,46.092 C68.129,46.002 68.249,45.898 68.309,45.777 L67.499,46.317 ZM68.669,46.407 L68.309,46.677 C68.429,46.558 68.579,46.497 68.760,46.497 C68.760,46.438 68.729,46.407 68.669,46.407 ZM68.850,45.507 L69.030,45.056 C68.909,45.177 68.850,45.326 68.850,45.507 ZM69.030,46.137 C69.210,46.078 69.300,45.927 69.300,45.687 C69.539,45.628 69.690,45.507 69.750,45.326 C69.930,45.207 70.065,45.101 70.155,45.011 C70.245,44.921 70.349,44.786 70.470,44.606 C70.349,44.727 70.214,44.831 70.065,44.921 C69.915,45.011 69.809,45.146 69.750,45.326 C69.690,45.387 69.629,45.432 69.570,45.462 C69.509,45.492 69.419,45.567 69.300,45.687 C69.120,45.808 69.030,45.957 69.030,46.137 ZM71.101,43.075 C70.741,43.196 70.470,43.466 70.290,43.886 C69.870,44.126 69.629,44.396 69.570,44.696 C69.750,44.637 69.885,44.547 69.975,44.426 C70.065,44.306 70.169,44.126 70.290,43.886 C70.529,43.827 70.800,43.556 71.101,43.075 C71.461,42.956 71.641,42.746 71.641,42.445 C71.340,42.566 71.160,42.776 71.101,43.075 ZM74.703,38.393 L74.703,38.303 L74.613,38.303 L74.703,38.393 C74.703,38.573 74.613,38.724 74.432,38.843 C74.012,39.264 73.742,39.624 73.622,39.924 L73.622,40.104 L73.352,40.104 L73.172,40.554 L72.992,40.554 L72.902,40.644 L72.902,41.004 C72.661,41.184 72.451,41.380 72.271,41.590 C72.091,41.801 71.880,42.055 71.641,42.355 C71.941,42.235 72.181,42.055 72.361,41.815 C72.541,41.575 72.722,41.305 72.902,41.004 C72.961,41.004 73.051,40.855 73.172,40.554 C73.471,40.495 73.622,40.344 73.622,40.104 C73.802,39.924 73.982,39.744 74.162,39.564 C74.342,39.383 74.432,39.144 74.432,38.843 C74.732,38.784 74.883,38.694 74.883,38.573 L74.703,38.393 ZM57.679,20.159 C56.988,21.090 56.374,22.065 55.833,23.085 C54.992,24.287 54.242,25.516 53.582,26.777 C52.921,28.038 52.261,29.298 51.601,30.559 C50.580,32.540 49.605,34.507 48.675,36.457 C47.743,38.408 46.858,40.405 46.018,42.445 C45.537,43.286 45.102,44.081 44.713,44.831 C44.321,45.583 43.977,46.317 43.677,47.037 C43.376,47.879 43.061,48.689 42.732,49.469 C42.401,50.249 42.025,51.060 41.606,51.900 C41.606,52.080 41.546,52.291 41.426,52.530 C41.005,52.830 40.675,52.980 40.435,52.980 C40.255,52.980 40.105,52.949 39.985,52.890 C39.504,52.769 39.085,52.634 38.725,52.485 C38.364,52.336 37.944,52.170 37.464,51.990 C37.043,51.810 36.803,51.510 36.744,51.089 C36.683,50.729 36.638,50.355 36.608,49.964 C36.578,49.574 36.563,49.198 36.563,48.838 C36.563,48.059 36.578,47.307 36.608,46.587 C36.638,45.867 36.623,45.146 36.563,44.426 L36.563,44.066 C36.623,43.946 36.653,43.827 36.653,43.706 C36.653,43.586 36.683,43.466 36.744,43.345 L36.744,42.355 L36.924,40.824 C36.983,40.524 37.059,40.180 37.149,39.789 C37.239,39.399 37.313,39.023 37.374,38.663 C37.374,38.543 37.358,38.424 37.329,38.303 C37.324,38.282 37.339,38.262 37.337,38.241 C37.113,38.459 36.896,38.676 36.708,38.888 C36.258,39.399 35.763,39.955 35.222,40.554 C34.261,41.454 33.361,42.355 32.521,43.255 C31.680,44.156 30.840,45.027 30.000,45.867 C29.699,46.348 29.354,46.783 28.964,47.172 C28.573,47.564 28.228,47.938 27.929,48.298 C27.749,48.599 27.538,48.854 27.298,49.063 C27.058,49.274 26.817,49.529 26.578,49.829 L25.047,51.089 C24.687,51.269 24.266,51.360 23.787,51.360 C23.366,51.360 23.035,51.330 22.796,51.269 C22.675,51.150 22.526,51.060 22.346,50.999 C22.166,50.940 22.015,50.819 21.896,50.639 C21.295,50.400 20.874,50.189 20.635,50.009 C20.514,49.770 20.379,49.529 20.230,49.288 C20.079,49.049 19.944,48.779 19.825,48.478 C19.704,47.998 19.599,47.518 19.509,47.037 C19.419,46.558 19.433,46.078 19.554,45.597 C19.674,44.577 19.825,43.571 20.005,42.580 C20.185,41.590 20.514,40.585 20.995,39.564 C21.234,38.183 21.716,36.833 22.436,35.511 L24.507,32.090 C24.807,31.610 25.137,31.175 25.497,30.784 C25.858,30.394 26.218,29.960 26.578,29.478 C26.698,29.359 26.833,29.284 26.983,29.253 C27.132,29.224 27.238,29.208 27.298,29.208 C27.298,29.449 27.328,29.599 27.388,29.658 C27.388,29.719 27.373,29.764 27.343,29.794 C27.312,29.825 27.298,29.870 27.298,29.929 L27.298,30.109 L27.298,30.289 C26.938,30.349 26.758,30.559 26.758,30.919 C26.457,31.099 26.308,31.340 26.308,31.639 C26.488,31.459 26.608,31.369 26.668,31.369 C26.608,31.490 26.578,31.610 26.578,31.730 L26.578,32.090 C25.917,33.111 25.331,34.102 24.822,35.061 C24.311,36.022 23.816,37.042 23.336,38.123 C23.215,38.424 23.111,38.739 23.021,39.068 C22.931,39.399 22.826,39.775 22.706,40.194 C22.646,40.254 22.616,40.344 22.616,40.464 L22.526,40.824 C22.585,40.765 22.616,40.675 22.616,40.554 L22.706,40.194 C22.826,40.135 22.916,40.029 22.976,39.879 C23.035,39.730 23.125,39.594 23.246,39.473 C24.026,37.553 24.836,35.782 25.678,34.161 C25.977,33.681 26.337,33.141 26.758,32.540 C27.177,31.941 27.478,31.400 27.659,30.919 C28.019,30.680 28.199,30.469 28.199,30.289 L28.469,29.929 C28.769,29.929 28.919,30.005 28.919,30.154 C28.919,30.304 28.949,30.439 29.009,30.559 L29.009,30.739 L29.189,30.649 C29.248,30.649 29.279,30.619 29.279,30.559 C29.579,30.559 29.730,30.619 29.730,30.739 C29.669,30.980 29.609,31.160 29.550,31.279 C29.489,31.400 29.399,31.549 29.279,31.730 C28.978,32.391 28.694,33.021 28.424,33.620 C28.154,34.221 27.839,34.852 27.478,35.511 C27.058,36.653 26.608,37.763 26.128,38.843 C25.647,39.924 25.227,41.035 24.867,42.175 C24.566,42.956 24.311,43.751 24.102,44.561 C23.891,45.371 23.726,46.197 23.606,47.037 L23.426,48.388 C23.485,48.388 23.531,48.403 23.561,48.433 C23.591,48.464 23.636,48.478 23.697,48.478 C24.116,48.358 24.417,48.208 24.597,48.028 C25.257,47.488 25.903,46.947 26.533,46.407 C27.163,45.867 27.808,45.267 28.469,44.606 C29.189,43.886 29.894,43.181 30.585,42.490 C31.274,41.801 31.981,41.184 32.701,40.644 C33.300,39.984 33.886,39.369 34.457,38.798 C35.027,38.228 35.642,37.643 36.303,37.042 C36.773,36.608 37.212,36.157 37.661,35.712 C37.765,35.432 37.840,35.142 37.869,34.836 C37.899,34.507 37.944,34.192 38.004,33.891 C38.063,33.591 38.153,33.321 38.274,33.080 C38.394,32.841 38.454,32.600 38.454,32.360 L38.725,30.019 C38.725,29.839 38.754,29.689 38.815,29.568 C38.995,29.089 39.175,28.654 39.355,28.263 C39.535,27.873 39.655,27.438 39.715,26.957 C39.835,26.657 39.954,26.372 40.075,26.102 C40.195,25.832 40.314,25.547 40.435,25.246 C40.555,24.947 40.796,24.796 41.156,24.796 L41.426,24.796 C41.786,24.917 42.025,25.037 42.146,25.156 C42.266,25.156 42.385,25.127 42.506,25.066 C42.566,25.066 42.597,25.052 42.597,25.021 C42.597,24.992 42.626,24.976 42.687,24.976 C42.806,24.976 42.867,25.037 42.867,25.156 C43.166,25.336 43.317,25.457 43.317,25.516 C43.497,25.696 43.587,25.877 43.587,26.057 C43.646,26.297 43.662,26.538 43.632,26.777 C43.601,27.018 43.587,27.258 43.587,27.497 C43.466,28.038 43.362,28.578 43.272,29.118 C43.182,29.658 43.076,30.199 42.957,30.739 L43.047,30.739 C42.986,31.340 42.896,31.941 42.777,32.540 C42.656,33.141 42.566,33.741 42.506,34.341 L42.326,35.421 C42.266,35.903 42.221,36.337 42.191,36.727 C42.160,37.118 42.086,37.553 41.966,38.033 C41.966,38.273 41.935,38.514 41.876,38.753 C41.816,38.994 41.786,39.234 41.786,39.473 C41.606,40.554 41.516,41.666 41.516,42.805 L41.516,42.985 L41.606,43.165 C41.786,43.165 41.876,43.106 41.876,42.985 L43.677,39.473 L47.369,31.459 C48.029,30.199 48.689,28.954 49.350,27.723 C50.010,26.493 50.730,25.246 51.511,23.986 C52.471,22.306 53.461,20.804 54.483,19.483 C54.782,19.064 55.097,18.673 55.428,18.313 C55.757,17.953 56.133,17.592 56.554,17.232 C56.673,17.113 56.853,16.978 57.094,16.827 C57.333,16.678 57.603,16.482 57.904,16.242 C58.384,16.002 58.684,15.881 58.805,15.881 C59.044,15.881 59.224,15.942 59.345,16.062 C59.465,16.122 59.600,16.152 59.750,16.152 C59.899,16.152 60.005,16.212 60.065,16.332 C60.124,16.692 60.336,16.872 60.696,16.872 C60.755,16.872 60.786,16.993 60.786,17.232 L60.245,17.772 C59.224,18.434 58.369,19.229 57.679,20.159 ZM25.227,33.801 C25.407,33.501 25.557,33.111 25.678,32.630 C25.737,32.571 25.813,32.510 25.903,32.450 C25.993,32.391 26.038,32.301 26.038,32.180 C25.917,32.240 25.827,32.285 25.768,32.315 C25.707,32.346 25.678,32.450 25.678,32.630 C25.376,32.931 25.122,33.215 24.912,33.485 C24.701,33.756 24.536,34.131 24.417,34.611 C24.777,34.372 25.047,34.102 25.227,33.801 ZM24.372,34.746 C24.341,34.717 24.327,34.672 24.327,34.611 L24.327,34.971 L24.417,34.881 C24.417,34.822 24.401,34.777 24.372,34.746 ZM22.976,37.853 C23.096,37.733 23.156,37.643 23.156,37.583 C23.156,37.523 23.141,37.492 23.111,37.492 C23.080,37.492 23.066,37.463 23.066,37.402 C23.305,37.103 23.516,36.817 23.697,36.547 C23.877,36.277 23.996,35.903 24.057,35.421 C24.237,35.362 24.327,35.241 24.327,35.061 C24.266,35.061 24.176,35.182 24.057,35.421 C23.576,36.022 23.246,36.682 23.066,37.402 C23.006,37.463 22.976,37.523 22.976,37.583 L22.976,37.853 ZM22.796,38.213 C22.796,38.093 22.826,37.974 22.886,37.853 C22.765,37.974 22.706,38.183 22.706,38.483 C22.765,38.424 22.796,38.334 22.796,38.213 ZM22.076,39.744 C22.135,39.685 22.225,39.624 22.346,39.564 C22.285,39.564 22.225,39.594 22.166,39.654 L22.076,39.744 ZM22.526,38.483 C22.465,38.543 22.405,38.663 22.346,38.843 C22.285,38.964 22.256,39.084 22.256,39.203 C22.256,39.324 22.285,39.414 22.346,39.473 C22.465,39.473 22.526,39.414 22.526,39.293 C22.526,39.234 22.465,39.084 22.346,38.843 C22.465,38.784 22.526,38.663 22.526,38.483 ZM27.253,48.028 C27.163,48.149 26.997,48.298 26.758,48.478 L26.578,48.658 C26.518,48.658 26.488,48.689 26.488,48.748 L26.488,48.928 C26.488,48.869 26.518,48.838 26.578,48.838 C26.637,48.838 26.668,48.779 26.668,48.658 C26.668,48.599 26.682,48.568 26.713,48.568 C26.743,48.568 26.758,48.539 26.758,48.478 C27.238,48.239 27.508,47.998 27.569,47.758 C27.448,47.818 27.343,47.908 27.253,48.028 ZM28.739,45.507 C28.739,45.567 28.708,45.597 28.649,45.597 C28.589,45.597 28.559,45.628 28.559,45.687 C28.499,45.747 28.469,45.808 28.469,45.867 L28.739,45.597 L28.739,45.507 ZM28.739,46.407 L28.469,46.677 C28.348,46.738 28.244,46.798 28.154,46.857 C28.064,46.918 27.958,47.098 27.839,47.397 C28.258,47.217 28.469,47.037 28.469,46.857 L28.469,46.677 L28.559,46.677 C28.679,46.558 28.739,46.467 28.739,46.407 C28.978,46.348 29.158,46.168 29.279,45.867 C28.978,45.988 28.798,46.168 28.739,46.407 ZM29.054,45.011 C29.023,45.101 28.978,45.207 28.919,45.326 C29.219,45.207 29.369,45.087 29.369,44.966 L29.369,44.786 C29.189,44.847 29.084,44.921 29.054,45.011 ZM29.730,44.426 L29.369,44.696 C29.429,44.637 29.519,44.606 29.640,44.606 L29.820,44.426 L29.730,44.426 ZM29.640,45.597 C29.820,45.416 29.939,45.177 30.000,44.876 L29.640,45.597 ZM30.540,43.526 L30.450,43.616 C30.450,43.676 30.434,43.706 30.405,43.706 C30.374,43.706 30.360,43.737 30.360,43.796 L30.540,43.616 L30.540,43.526 ZM31.846,42.175 C31.695,42.235 31.560,42.386 31.440,42.625 C31.380,42.625 31.350,42.641 31.350,42.670 C31.350,42.701 31.319,42.715 31.260,42.715 L30.990,42.985 L30.990,43.075 C30.930,43.075 30.869,43.106 30.810,43.165 L30.900,43.255 L30.990,43.075 L31.170,42.985 L31.260,42.985 C31.260,42.866 31.319,42.746 31.440,42.625 C31.621,42.566 31.891,42.355 32.251,41.995 C32.130,42.055 31.995,42.116 31.846,42.175 ZM32.251,42.715 C32.190,42.836 32.161,42.926 32.161,42.985 C32.161,43.046 32.130,43.075 32.071,43.075 C31.891,43.075 31.801,43.136 31.801,43.255 C31.440,43.496 31.229,43.737 31.170,43.976 L31.170,43.886 C31.110,43.886 31.020,43.946 30.900,44.066 C30.540,44.306 30.329,44.486 30.270,44.606 L30.180,44.606 L30.180,44.696 L30.270,44.606 C30.630,44.486 30.840,44.306 30.900,44.066 L30.990,44.066 L31.170,43.976 C31.470,43.917 31.680,43.676 31.801,43.255 C31.860,43.255 31.875,43.241 31.846,43.210 C31.815,43.181 31.860,43.165 31.981,43.165 C32.100,43.046 32.190,42.985 32.251,42.985 L32.251,42.715 ZM33.782,41.094 L33.692,41.094 C33.692,41.215 33.661,41.305 33.602,41.364 C33.661,41.305 33.721,41.274 33.782,41.274 L33.782,41.094 ZM35.402,39.744 C35.462,39.744 35.493,39.714 35.493,39.654 L35.673,39.383 C35.612,39.383 35.583,39.399 35.583,39.428 C35.583,39.459 35.552,39.473 35.493,39.473 C35.372,39.654 35.281,39.744 35.222,39.744 L35.402,39.744 ZM34.592,39.564 L34.592,39.654 C34.592,39.594 34.617,39.559 34.637,39.518 L34.592,39.564 ZM34.862,39.293 L34.727,39.428 C34.767,39.408 34.802,39.383 34.862,39.383 L34.862,39.293 ZM35.402,38.753 L35.222,39.023 C35.583,38.784 35.822,38.543 35.943,38.303 C35.583,38.424 35.402,38.573 35.402,38.753 ZM36.663,37.402 L36.663,37.673 C36.783,37.613 36.843,37.553 36.843,37.492 C36.843,37.433 36.857,37.388 36.888,37.357 C36.918,37.328 36.933,37.253 36.933,37.132 L36.663,37.402 ZM36.573,38.393 C36.873,38.334 37.113,38.123 37.293,37.763 C37.053,37.823 36.812,38.033 36.573,38.393 ZM53.852,24.616 C54.091,24.377 54.242,24.166 54.302,23.986 C54.362,23.806 54.452,23.566 54.573,23.265 C54.692,23.206 54.753,23.130 54.753,23.040 C54.753,22.950 54.812,22.846 54.933,22.725 C55.113,22.545 55.203,22.396 55.203,22.275 C55.023,22.396 54.933,22.545 54.933,22.725 C54.692,22.785 54.573,22.966 54.573,23.265 C54.272,23.386 54.091,23.566 54.032,23.806 C53.972,24.046 53.911,24.316 53.852,24.616 C53.371,24.917 53.132,25.307 53.132,25.787 C53.371,25.606 53.612,25.217 53.852,24.616 ZM48.720,34.161 C49.019,33.861 49.170,33.591 49.170,33.350 C49.409,33.111 49.575,32.871 49.665,32.630 C49.755,32.391 49.859,32.121 49.980,31.820 C50.100,31.700 50.174,31.565 50.205,31.414 C50.235,31.265 50.280,31.130 50.340,31.009 C50.881,30.289 51.241,29.509 51.421,28.668 C51.660,28.548 51.795,28.413 51.826,28.263 C51.856,28.114 51.901,27.979 51.961,27.858 C52.200,27.677 52.351,27.497 52.411,27.317 C52.471,27.137 52.531,26.898 52.592,26.597 C52.831,26.477 52.966,26.358 52.997,26.237 C53.026,26.117 53.071,25.998 53.132,25.877 C52.952,25.998 52.846,26.117 52.817,26.237 C52.786,26.358 52.711,26.477 52.592,26.597 C52.351,26.718 52.200,26.883 52.141,27.092 C52.081,27.303 52.020,27.558 51.961,27.858 C51.721,27.979 51.586,28.098 51.556,28.218 C51.525,28.339 51.480,28.488 51.421,28.668 C51.120,29.028 50.895,29.388 50.746,29.749 C50.595,30.109 50.460,30.529 50.340,31.009 C50.100,31.130 49.980,31.400 49.980,31.820 C49.679,32.000 49.485,32.225 49.395,32.495 C49.305,32.765 49.229,33.051 49.170,33.350 C48.869,33.530 48.720,33.801 48.720,34.161 C48.659,34.161 48.569,34.372 48.449,34.791 C48.269,34.912 48.148,35.032 48.089,35.151 C48.029,35.272 47.968,35.392 47.909,35.511 C48.029,35.452 48.209,35.212 48.449,34.791 C48.630,34.732 48.720,34.521 48.720,34.161 ZM47.909,35.962 L47.909,35.692 C47.788,35.813 47.729,35.948 47.729,36.097 C47.729,36.247 47.669,36.443 47.549,36.682 C47.248,36.862 47.099,37.103 47.099,37.402 C47.398,37.163 47.549,36.923 47.549,36.682 C47.788,36.443 47.909,36.202 47.909,35.962 ZM47.099,37.492 C46.978,37.613 46.919,37.718 46.919,37.808 C46.919,37.898 46.858,38.033 46.739,38.213 C46.978,38.033 47.099,37.794 47.099,37.492 ZM46.559,38.978 C46.559,38.888 46.588,38.784 46.649,38.663 L46.649,38.213 C46.528,38.334 46.468,38.438 46.468,38.528 C46.468,38.618 46.438,38.724 46.378,38.843 L46.378,39.203 C46.498,39.144 46.559,39.068 46.559,38.978 ZM46.378,39.293 C46.018,39.473 45.838,39.714 45.838,40.014 C46.198,39.834 46.378,39.594 46.378,39.293 ZM45.343,40.959 C45.253,41.229 45.177,41.515 45.118,41.815 C45.478,41.454 45.717,40.885 45.838,40.104 C45.598,40.405 45.433,40.689 45.343,40.959 ZM44.532,43.345 C44.742,42.866 44.938,42.386 45.118,41.905 C44.758,42.265 44.457,42.686 44.217,43.165 C43.977,43.647 43.797,44.097 43.677,44.516 C44.037,44.216 44.321,43.827 44.532,43.345 ZM41.156,50.369 L41.336,50.279 C41.395,50.220 41.440,50.159 41.471,50.099 C41.500,50.040 41.546,49.979 41.606,49.919 C41.906,49.259 42.160,48.629 42.371,48.028 C42.581,47.428 42.836,46.828 43.137,46.227 C43.196,46.107 43.227,45.988 43.227,45.867 C43.227,45.747 43.256,45.628 43.317,45.507 C43.436,45.387 43.511,45.236 43.542,45.056 C43.572,44.876 43.617,44.727 43.677,44.606 C43.436,44.786 43.317,45.087 43.317,45.507 L42.957,45.867 C42.896,46.107 42.822,46.317 42.732,46.497 C42.642,46.677 42.536,46.888 42.416,47.127 L41.156,50.279 L41.156,50.369 ZM41.786,45.236 L41.786,45.326 L41.876,45.326 L41.786,45.236 ZM43.317,41.995 L43.317,42.085 L43.407,42.085 L43.317,41.995 ZM46.288,35.872 L46.198,35.872 L46.288,36.052 L46.288,35.872 ZM46.739,35.061 C46.678,35.061 46.649,35.092 46.649,35.151 C46.649,35.212 46.678,35.241 46.739,35.241 L46.829,35.061 L46.739,35.061 ZM50.250,28.128 L50.160,28.128 C50.160,28.188 50.190,28.218 50.250,28.218 L50.250,28.128 ZM51.421,25.967 C51.360,26.027 51.360,26.088 51.421,26.147 L51.511,25.967 L51.421,25.967 ZM55.563,20.114 C55.383,20.174 55.217,20.294 55.068,20.474 C54.917,20.654 54.782,20.804 54.663,20.924 C54.542,21.225 54.422,21.495 54.302,21.734 C54.181,21.975 53.972,22.216 53.672,22.455 C53.551,22.815 53.402,23.116 53.222,23.355 C53.042,23.596 52.831,23.866 52.592,24.166 C52.531,24.706 52.261,25.156 51.781,25.516 C51.781,25.817 51.660,26.088 51.421,26.327 C51.360,26.507 51.286,26.718 51.196,26.957 C51.106,27.198 50.940,27.407 50.701,27.587 C50.580,27.948 50.460,28.188 50.340,28.308 L50.070,29.208 L47.099,34.611 C47.099,34.791 47.054,34.926 46.964,35.016 C46.874,35.106 46.798,35.212 46.739,35.331 C46.678,35.511 46.633,35.662 46.604,35.782 C46.573,35.903 46.498,36.022 46.378,36.142 C46.077,37.163 45.658,37.974 45.118,38.573 C45.118,38.514 45.087,38.453 45.028,38.393 C45.028,38.514 45.057,38.573 45.118,38.573 C45.057,38.933 44.938,39.338 44.758,39.789 C44.578,40.239 44.366,40.585 44.127,40.824 L44.127,40.554 L44.037,40.374 L43.947,40.554 C43.947,40.615 44.006,40.705 44.127,40.824 C44.067,40.945 44.022,41.065 43.992,41.184 C43.961,41.305 43.857,41.425 43.677,41.545 L43.767,41.364 L43.677,41.274 L43.677,41.545 C43.677,42.145 43.436,42.686 42.957,43.165 L43.047,42.985 L42.957,42.985 L42.957,43.165 C42.957,43.345 42.941,43.526 42.912,43.706 C42.881,43.886 42.746,44.036 42.506,44.156 C42.506,44.036 42.566,43.917 42.687,43.796 C42.687,43.737 42.656,43.676 42.597,43.616 C42.597,43.676 42.581,43.706 42.551,43.706 C42.521,43.706 42.506,43.737 42.506,43.796 C42.385,43.917 42.326,44.036 42.326,44.156 C42.205,44.277 42.146,44.367 42.146,44.426 C42.146,44.547 42.205,44.667 42.326,44.786 C42.205,44.966 42.131,45.162 42.101,45.371 C42.070,45.583 41.996,45.777 41.876,45.957 C41.696,46.258 41.561,46.542 41.471,46.812 C41.381,47.082 41.246,47.368 41.066,47.668 L41.246,47.848 L41.336,47.848 C41.455,47.668 41.561,47.488 41.651,47.307 C41.741,47.127 41.816,46.947 41.876,46.767 L43.317,43.616 L47.909,33.981 C48.990,31.760 50.129,29.539 51.331,27.317 C52.531,25.097 53.821,22.936 55.203,20.834 L55.563,20.114 C55.802,19.994 55.923,19.814 55.923,19.573 C55.863,19.634 55.743,19.814 55.563,20.114 ZM56.103,19.258 C56.103,19.289 56.072,19.334 56.013,19.393 L56.283,19.123 C56.162,19.184 56.103,19.229 56.103,19.258 ZM56.283,20.744 C55.923,20.865 55.683,21.045 55.563,21.284 C55.442,21.525 55.323,21.795 55.203,22.095 C55.442,21.915 55.653,21.720 55.833,21.509 C56.013,21.300 56.162,21.045 56.283,20.744 C56.464,20.685 56.554,20.505 56.554,20.204 L56.283,20.744 ZM56.734,19.934 C56.673,19.994 56.644,20.084 56.644,20.204 C56.703,20.084 56.779,19.994 56.869,19.934 C56.959,19.874 57.004,19.784 57.004,19.663 C56.883,19.784 56.793,19.874 56.734,19.934 ZM27.118,30.739 C27.238,30.739 27.328,30.709 27.388,30.649 C27.388,31.009 27.148,31.250 26.668,31.369 L26.758,30.919 C26.878,30.800 26.997,30.739 27.118,30.739 ZM27.478,30.289 L27.478,30.469 C27.478,30.529 27.448,30.590 27.388,30.649 C27.388,30.529 27.357,30.410 27.298,30.289 L27.478,30.289 ZM33.602,22.815 C33.241,22.936 32.940,23.206 32.701,23.625 C32.521,23.806 32.431,24.017 32.431,24.256 C32.370,24.436 32.370,24.586 32.431,24.706 C32.190,25.066 32.040,25.367 31.981,25.606 C31.860,25.606 31.770,25.622 31.711,25.651 C31.650,25.682 31.590,25.696 31.531,25.696 C31.470,25.696 31.440,25.651 31.440,25.561 C31.440,25.471 31.380,25.426 31.260,25.426 L31.260,25.156 C31.200,25.037 31.094,24.947 30.945,24.886 C30.795,24.827 30.689,24.676 30.630,24.436 C30.689,24.256 30.644,24.152 30.495,24.121 C30.344,24.091 30.209,24.017 30.090,23.896 C29.910,23.836 29.820,23.686 29.820,23.445 C29.939,22.966 30.104,22.515 30.315,22.095 C30.525,21.675 30.840,21.315 31.260,21.014 C31.319,20.895 31.500,20.834 31.801,20.834 C31.981,20.834 32.100,20.865 32.161,20.924 C32.280,20.985 32.445,21.045 32.656,21.104 C32.866,21.165 33.030,21.255 33.151,21.374 C33.331,21.495 33.481,21.644 33.602,21.825 C33.721,22.005 33.841,22.155 33.962,22.275 C33.841,22.335 33.766,22.425 33.737,22.545 C33.706,22.666 33.661,22.756 33.602,22.815 ZM32.341,21.554 L32.251,21.644 L31.981,21.644 L31.981,21.464 C31.801,21.464 31.695,21.480 31.666,21.509 C31.635,21.540 31.590,21.585 31.531,21.644 C31.410,21.644 31.350,21.705 31.350,21.825 L31.350,21.915 L31.531,21.915 L31.531,21.734 L31.531,21.644 L31.801,21.644 C31.621,21.705 31.531,21.825 31.531,22.005 C31.590,22.065 31.621,22.155 31.621,22.275 C32.040,22.216 32.280,22.005 32.341,21.644 L32.341,21.554 ZM28.019,30.019 C27.839,30.019 27.688,30.079 27.569,30.199 C27.628,30.140 27.659,30.095 27.659,30.064 C27.659,30.034 27.718,29.989 27.839,29.929 C27.839,29.870 27.868,29.825 27.929,29.794 C27.988,29.764 28.019,29.719 28.019,29.658 L28.109,29.568 L28.109,29.658 L27.929,29.839 L28.019,30.019 ZM24.713,3.050 C24.623,3.140 24.578,3.216 24.578,3.275 C23.917,4.477 23.286,5.751 22.687,7.102 C22.086,8.453 21.516,9.789 20.976,11.109 C20.616,11.950 20.256,12.851 19.896,13.810 C19.535,14.771 19.205,15.672 18.905,16.512 C18.604,17.353 18.334,18.119 18.095,18.808 C17.854,19.499 17.703,20.024 17.644,20.384 C17.343,21.045 17.059,21.705 16.789,22.365 C16.519,23.026 16.294,23.656 16.114,24.256 C15.934,24.737 15.843,25.007 15.843,25.066 C15.303,26.268 14.822,27.483 14.403,28.713 C13.982,29.944 13.561,31.189 13.142,32.450 C12.782,33.231 12.467,33.981 12.197,34.701 C11.926,35.421 11.641,36.173 11.341,36.952 C11.281,37.073 11.206,37.193 11.116,37.312 C11.026,37.433 10.981,37.553 10.981,37.673 C10.860,38.213 10.605,38.933 10.216,39.834 C9.824,40.734 9.540,41.425 9.360,41.905 C9.000,42.686 8.730,43.376 8.550,43.976 C8.370,44.577 8.190,45.207 8.009,45.867 C7.829,46.767 7.618,47.548 7.379,48.208 C7.139,48.448 7.019,48.629 7.019,48.748 C7.019,48.809 7.049,48.869 7.109,48.928 C6.988,49.529 6.839,50.130 6.659,50.729 C6.479,51.330 6.328,51.870 6.209,52.350 C6.088,52.710 5.998,53.055 5.938,53.386 C5.878,53.715 5.817,54.061 5.758,54.421 C5.698,54.901 5.668,55.381 5.668,55.862 C5.668,56.342 5.637,56.852 5.578,57.393 C5.637,58.413 6.268,59.223 7.469,59.824 C8.429,60.484 9.450,60.814 10.531,60.814 C10.830,60.873 11.101,60.904 11.341,60.904 C11.580,60.904 11.821,60.904 12.062,60.904 C13.082,60.904 14.012,60.799 14.853,60.589 C15.693,60.378 16.564,60.123 17.464,59.824 C18.604,59.343 19.745,58.863 20.886,58.383 C22.026,57.902 23.106,57.422 24.128,56.942 L29.440,53.971 L29.891,53.701 C30.431,53.341 30.881,53.160 31.241,53.160 C31.601,53.160 31.931,53.250 32.232,53.431 C32.291,53.431 32.336,53.476 32.367,53.566 C32.396,53.656 32.471,53.730 32.592,53.791 L32.862,53.971 L32.862,54.061 C32.862,54.120 32.831,54.196 32.772,54.286 C32.712,54.376 32.682,54.480 32.682,54.601 C32.261,54.901 31.811,55.201 31.331,55.502 C30.850,55.801 30.370,56.161 29.891,56.582 C28.509,57.422 27.099,58.248 25.658,59.058 C24.218,59.869 22.716,60.603 21.156,61.265 C19.896,61.864 18.635,62.330 17.374,62.660 C16.114,62.989 14.883,63.215 13.682,63.336 C13.262,63.395 12.872,63.440 12.512,63.471 C12.152,63.500 11.760,63.516 11.341,63.516 C11.101,63.516 10.875,63.516 10.666,63.516 C10.455,63.516 10.200,63.485 9.900,63.426 C8.399,62.944 7.049,62.480 5.848,62.030 C4.647,61.580 3.537,60.844 2.517,59.824 C1.976,59.163 1.556,58.458 1.256,57.708 C0.955,56.956 0.865,56.071 0.986,55.051 C0.865,54.811 0.865,54.541 0.986,54.241 C0.986,53.940 1.015,53.656 1.076,53.386 C1.135,53.115 1.166,52.859 1.166,52.620 C1.225,52.501 1.256,52.320 1.256,52.080 C1.315,51.481 1.450,50.909 1.661,50.369 C1.871,49.829 2.006,49.229 2.066,48.568 L2.066,47.848 C2.186,47.728 2.247,47.578 2.247,47.397 C2.486,47.217 2.607,46.978 2.607,46.677 C2.607,46.618 2.636,46.558 2.697,46.497 C2.756,45.837 2.936,45.146 3.237,44.426 C3.537,43.706 3.717,42.985 3.777,42.265 C3.836,41.965 3.971,41.770 4.183,41.680 C4.392,41.590 4.557,41.364 4.678,41.004 C4.678,40.765 4.737,40.540 4.858,40.329 C4.977,40.119 5.068,39.924 5.128,39.744 C5.248,39.203 5.383,38.498 5.533,37.628 C5.682,36.758 5.878,36.142 6.119,35.782 L7.289,32.360 C7.769,31.340 8.219,30.320 8.640,29.298 C9.059,28.278 9.450,27.258 9.810,26.237 C10.230,25.336 10.590,24.436 10.891,23.535 C11.191,22.635 11.580,21.734 12.062,20.834 C12.361,19.934 12.782,18.898 13.322,17.727 C13.862,16.557 14.403,15.402 14.943,14.261 C15.483,13.121 15.979,12.086 16.429,11.154 C16.879,10.224 17.194,9.549 17.374,9.128 C18.095,7.507 18.964,5.976 19.986,4.536 L21.877,1.564 C21.996,1.445 22.161,1.325 22.372,1.204 C22.581,1.084 22.777,0.934 22.957,0.754 L23.137,0.664 C23.257,0.664 23.317,0.724 23.317,0.844 L23.497,1.024 L23.587,1.114 C23.707,1.235 23.827,1.294 23.948,1.294 C24.007,1.294 24.052,1.280 24.083,1.249 C24.112,1.220 24.157,1.204 24.218,1.204 C24.277,1.204 24.308,1.190 24.308,1.159 C24.308,1.129 24.337,1.114 24.398,1.114 L24.488,1.114 C24.547,1.294 24.668,1.490 24.848,1.699 C25.028,1.910 25.087,2.165 25.028,2.465 C25.028,2.645 24.997,2.766 24.938,2.825 C24.878,2.885 24.803,2.960 24.713,3.050 Z"/>
</symbol><symbol id="svg-shape-bubbles">
<path d="M141.333,59.399 C140.559,62.130 139.064,64.789 136.813,67.261 C125.057,79.001 104.876,83.168 91.198,73.186 C80.504,65.752 82.107,49.572 89.457,39.583 C92.519,35.657 96.442,33.047 101.101,31.272 C104.147,30.189 107.147,29.895 110.322,29.294 C113.975,28.564 117.661,29.891 121.267,29.948 C123.612,30.088 125.736,31.321 128.033,32.248 C132.150,34.233 135.088,37.568 137.547,41.033 C140.262,45.462 142.147,50.631 141.990,55.836 C142.070,57.105 141.369,58.327 141.333,59.399 ZM103.163,103.765 C103.452,106.785 103.740,109.804 102.661,112.351 C102.206,113.940 101.572,115.456 100.753,116.842 C97.986,121.944 92.372,123.979 87.122,122.559 C82.957,121.362 80.019,118.026 78.214,114.126 C76.969,111.365 76.680,108.346 77.173,105.373 C77.842,102.095 78.686,98.511 81.174,96.289 C82.306,95.725 83.007,94.503 84.443,94.114 C92.323,90.950 101.468,95.447 103.163,103.765 ZM60.751,39.488 C48.947,45.591 29.624,43.330 26.442,28.445 C24.827,21.396 29.769,14.896 34.745,10.453 C40.678,5.751 46.867,2.012 54.477,0.729 C56.694,0.387 58.609,-0.130 60.954,0.010 C65.166,0.420 68.981,2.227 72.444,4.646 C74.391,6.185 75.685,8.158 76.978,10.132 C77.537,11.271 77.793,12.235 78.048,13.198 C78.962,21.469 75.535,28.849 69.466,34.252 C67.033,36.312 64.102,38.104 60.751,39.488 ZM19.748,60.420 C18.470,65.844 14.007,72.045 8.105,70.517 C3.932,69.520 0.954,65.651 0.490,61.341 C0.358,59.602 -0.147,58.120 0.061,56.577 C0.166,55.212 0.713,53.866 1.089,52.421 C1.364,51.155 2.148,50.184 2.761,49.115 C3.340,48.500 4.021,47.708 4.599,47.093 C6.674,45.446 9.053,44.452 11.802,44.385 C12.855,44.521 14.009,44.479 14.959,44.792 C15.806,45.285 16.823,45.876 17.670,46.367 C18.585,47.136 19.397,48.084 20.107,49.209 C20.648,50.236 21.086,51.441 21.253,52.726 C21.352,53.734 21.349,54.921 21.053,56.009 C20.854,57.434 20.419,58.925 19.748,60.420 ZM5.730,86.375 C6.581,85.211 7.684,84.563 9.004,83.856 C11.485,82.718 14.176,82.807 16.665,83.885 C17.214,84.203 17.761,84.522 18.310,84.840 C18.916,85.377 19.660,85.992 19.970,86.725 C20.375,88.250 20.996,89.716 20.511,91.326 C20.407,92.398 20.127,93.506 19.656,94.572 C18.649,99.220 12.843,101.374 9.083,99.006 C7.987,98.369 7.049,97.456 6.190,96.404 C5.273,95.135 4.789,93.749 4.384,92.224 C4.153,91.353 4.275,90.503 4.398,89.653 C4.678,88.527 4.959,87.400 5.730,86.375 ZM33.769,62.034 C36.257,59.813 39.001,58.554 42.047,57.472 C48.748,55.660 56.215,56.738 61.882,61.659 C67.070,66.710 70.248,73.852 69.234,80.936 C68.929,83.608 68.135,86.221 66.823,88.591 C62.300,98.976 47.909,100.802 39.338,94.602 C37.087,92.887 34.837,91.173 33.241,89.023 C32.074,87.531 31.084,85.734 30.095,83.936 C28.977,81.657 28.768,79.907 28.129,77.499 C27.537,74.303 28.205,71.025 29.480,68.098 C30.404,65.783 31.935,63.821 33.769,62.034 Z"/>
</symbol><symbol id="svg-shape-waves">
<path d="M272.192,272.393 C209.649,284.430 173.174,263.981 163.429,244.262 C153.683,224.542 150.082,178.100 113.925,173.595 C77.768,169.089 42.542,211.085 21.344,153.075 C0.145,95.065 5.991,120.189 10.455,76.225 C14.918,32.261 -25.962,-8.028 28.994,1.373 C83.950,10.773 94.201,55.737 94.201,55.737 C94.201,55.737 124.613,106.894 167.233,100.621 C209.853,94.348 215.008,84.927 237.759,87.075 C260.511,89.223 291.593,107.135 268.171,138.233 C244.749,169.330 211.821,192.666 242.902,210.577 C273.985,228.489 294.923,206.751 299.540,237.220 C304.157,267.688 272.192,272.393 272.192,272.393 Z"/>
</symbol><symbol id="svg-shape-zebra">
<path d="M267.893,27.761 C255.780,23.438 246.617,12.911 244.210,-0.001 C245.455,0.343 246.690,0.766 247.903,1.262 C253.169,3.417 258.034,6.940 261.649,11.267 C265.551,15.936 268.000,21.533 267.916,27.343 C267.913,27.485 267.898,27.620 267.893,27.761 ZM259.914,44.288 C257.144,46.714 254.072,48.157 250.896,49.107 C246.823,43.675 244.218,37.076 243.683,29.898 C247.800,35.945 253.385,40.902 259.914,44.288 ZM209.883,10.635 C213.220,6.197 218.787,2.656 225.052,0.672 C235.470,6.519 242.744,17.315 243.683,29.883 C236.211,18.911 223.934,11.484 209.883,10.635 ZM240.385,51.120 C236.835,51.547 234.276,51.423 230.608,51.177 C223.818,46.911 215.790,44.440 207.182,44.440 C195.864,44.440 185.544,48.708 177.732,55.721 C175.400,56.747 173.197,58.004 171.256,59.548 C174.519,42.657 189.358,29.898 207.182,29.898 C221.893,29.898 234.567,38.590 240.385,51.120 ZM170.683,29.883 C171.052,24.933 172.412,20.263 174.551,16.055 C176.815,17.302 178.781,18.412 180.830,19.311 C176.894,22.250 173.452,25.816 170.683,29.883 ZM134.290,29.883 C133.377,29.883 132.476,29.840 131.581,29.774 C130.970,23.095 130.892,21.294 131.899,18.681 C132.348,17.518 132.936,16.391 133.638,15.321 C133.856,15.324 134.070,15.341 134.290,15.341 C143.111,15.341 151.318,12.736 158.214,8.273 C160.427,9.160 162.953,10.307 165.904,11.699 C159.555,22.573 147.778,29.883 134.290,29.883 ZM164.200,71.413 C163.779,74.425 164.034,77.708 164.559,81.620 C157.971,91.303 146.874,97.663 134.290,97.663 C121.449,97.663 110.161,91.040 103.627,81.024 C107.738,81.061 111.820,80.439 115.593,78.969 C121.271,81.631 127.605,83.121 134.290,83.121 C145.833,83.121 156.334,78.676 164.200,71.413 ZM134.290,117.011 C148.196,117.011 160.587,110.560 168.678,100.498 C169.045,101.612 169.426,102.684 169.814,103.732 C165.866,119.706 151.465,131.553 134.290,131.553 C115.005,131.553 99.204,116.622 97.789,97.678 C105.735,109.348 119.118,117.011 134.290,117.011 ZM61.289,78.330 C46.117,78.330 32.735,85.993 24.789,97.663 C26.204,78.718 42.004,63.788 61.289,63.788 C64.591,63.788 67.786,64.235 70.828,65.055 C72.884,67.051 74.269,68.686 75.140,69.616 C78.765,73.486 84.467,76.873 90.924,78.932 C94.795,84.271 97.268,90.694 97.789,97.663 C89.843,85.993 76.460,78.330 61.289,78.330 ZM24.789,63.773 C25.070,60.015 25.925,56.419 27.253,53.061 C28.963,52.791 30.732,52.545 32.570,52.291 C33.984,52.096 35.466,51.898 37.006,51.746 C32.196,54.927 28.034,59.008 24.789,63.773 ZM2.983,94.581 C1.526,91.259 0.276,87.415 0.036,83.129 C0.022,82.868 -0.001,82.303 0.007,81.529 C10.226,78.718 18.969,72.335 24.789,63.788 C23.758,77.597 15.079,89.265 2.983,94.581 ZM24.789,97.678 C24.291,104.348 22.003,110.517 18.414,115.716 C16.374,114.051 14.317,112.119 12.346,109.854 C17.252,106.654 21.493,102.518 24.789,97.678 ZM61.289,97.795 C80.574,97.795 96.375,112.726 97.789,131.671 C89.843,120.001 76.460,112.337 61.289,112.337 C49.774,112.337 39.296,116.759 31.437,123.990 C30.082,123.307 28.637,122.523 27.032,121.590 C27.024,121.585 27.015,121.580 27.007,121.575 C32.211,107.683 45.596,97.795 61.289,97.795 ZM97.789,165.561 C96.424,163.556 94.888,161.680 93.221,159.930 C87.052,150.971 85.659,149.388 83.100,147.231 C77.480,142.495 70.701,139.685 57.142,134.064 C55.812,133.512 54.574,133.012 53.404,132.548 C55.945,131.990 58.581,131.685 61.289,131.685 C80.574,131.685 96.375,146.616 97.789,165.561 ZM134.290,184.909 C149.461,184.909 162.843,177.245 170.790,165.575 C169.375,184.520 153.574,199.451 134.290,199.451 C128.188,199.451 122.436,197.952 117.377,195.308 C112.176,187.836 107.175,180.443 101.097,171.485 C99.946,169.789 98.890,168.234 97.910,166.792 C97.866,166.387 97.819,165.984 97.789,165.575 C105.735,177.245 119.118,184.909 134.290,184.909 ZM170.790,199.465 C169.886,211.563 163.111,222.016 153.313,227.998 C146.899,226.673 142.230,223.972 140.206,222.767 C138.595,221.808 137.130,220.785 135.152,218.771 C149.965,218.485 162.995,210.912 170.790,199.465 ZM197.774,200.697 C197.078,202.940 196.148,205.219 194.889,207.521 C194.383,208.446 186.656,222.032 171.735,226.975 C175.017,214.174 185.029,204.083 197.774,200.697 ZM199.388,180.494 C199.395,180.600 199.400,180.709 199.406,180.815 C187.498,182.935 177.238,189.823 170.683,199.451 C171.843,183.903 182.697,171.066 197.212,166.960 C198.404,171.557 199.127,175.966 199.388,180.494 ZM186.040,138.416 C187.871,142.313 189.507,145.920 190.954,149.314 C182.678,152.591 175.627,158.299 170.683,165.561 C171.519,154.354 177.391,144.554 186.040,138.416 ZM134.290,165.561 C115.005,165.561 99.204,150.630 97.789,131.685 C105.735,143.355 119.118,151.019 134.290,151.019 C149.461,151.019 162.843,143.355 170.790,131.685 C169.375,150.630 153.574,165.561 134.290,165.561 ZM176.546,118.818 C177.234,120.219 177.901,121.577 178.557,122.915 C175.564,125.472 172.904,128.407 170.683,131.671 C171.096,126.135 172.745,120.947 175.343,116.369 C175.755,117.211 176.159,118.031 176.546,118.818 ZM134.290,49.231 C149.461,49.231 162.843,41.568 170.790,29.898 C169.375,48.843 153.574,63.773 134.290,63.773 C133.244,63.773 132.213,63.721 131.190,63.635 C132.162,61.493 132.876,59.297 133.284,57.142 C133.553,55.716 133.522,53.181 133.259,49.199 C133.603,49.207 133.943,49.231 134.290,49.231 Z"/>
</symbol><symbol id="svg-tw">
<path d="M18.998,1.885 C18.299,2.206 17.546,2.423 16.758,2.520 C17.563,2.021 18.181,1.231 18.472,0.290 C17.719,0.752 16.885,1.087 15.996,1.268 C15.285,0.485 14.271,-0.005 13.150,-0.005 C10.632,-0.005 8.781,2.423 9.350,4.944 C6.110,4.777 3.236,3.172 1.313,0.733 C0.290,2.544 0.782,4.915 2.519,6.115 C1.880,6.094 1.278,5.912 0.753,5.610 C0.711,7.478 2.005,9.224 3.881,9.614 C3.332,9.768 2.730,9.803 2.120,9.682 C2.616,11.284 4.055,12.449 5.763,12.482 C4.123,13.810 2.058,14.403 -0.010,14.151 C1.714,15.294 3.765,15.962 5.967,15.962 C13.208,15.962 17.298,9.641 17.052,3.972 C17.814,3.403 18.475,2.693 18.998,1.885 Z"/>
</symbol></svg>
