<?xml version="1.0" standalone="no"?>
<!DOCTYPE svg PUBLIC "-//W3C//DTD SVG 20010904//EN"
 "http://www.w3.org/TR/2001/REC-SVG-20010904/DTD/svg10.dtd">
<svg version="1.0" xmlns="http://www.w3.org/2000/svg"
 width="180.000000pt" height="180.000000pt" viewBox="0 0 180.000000 180.000000"
 preserveAspectRatio="xMidYMid meet">
<metadata>
Created by potrace 1.11, written by Peter Selinger 2001-2013
</metadata>
<g transform="translate(0.000000,180.000000) scale(0.100000,-0.100000)"
fill="#000000" stroke="none">
<path d="M734 1685 c-371 -80 -632 -405 -632 -785 0 -441 343 -791 785 -799
363 -7 673 222 784 579 20 64 23 96 23 220 0 123 -3 156 -23 220 -47 151 -146
305 -254 393 -98 80 -240 150 -348 172 -66 14 -273 14 -335 0z m276 -70 c157
-21 335 -120 440 -245 308 -372 190 -919 -244 -1124 -367 -174 -805 -7 -972
371 -105 237 -61 537 110 745 96 117 245 208 391 242 106 24 159 26 275 11z"/>
<path d="M420 1065 c-8 -10 -12 -67 -12 -189 -1 -181 4 -206 41 -206 28 0 41
22 41 70 l0 46 58 -4 c47 -3 63 0 91 20 101 69 89 219 -21 263 -37 14 -104 15
-127 0 -5 -3 -12 -1 -16 5 -9 15 -41 12 -55 -5z m199 -109 c10 -21 11 -34 2
-52 -36 -79 -152 -32 -122 49 20 53 95 54 120 3z"/>
<path d="M842 1064 c-94 -40 -116 -169 -41 -242 l30 -29 -40 -32 c-40 -32 -48
-64 -20 -82 16 -9 251 -10 265 -1 6 4 14 16 18 28 10 31 -20 51 -76 49 -27 0
-48 1 -48 4 0 4 21 20 45 36 55 37 84 90 79 145 -10 106 -114 166 -212 124z
m109 -90 c44 -39 4 -121 -53 -110 -39 8 -58 29 -58 65 0 20 8 36 25 50 29 22
58 20 86 -5z"/>
<path d="M1126 1065 c-12 -12 -14 -40 -13 -141 2 -118 4 -128 24 -141 19 -13
24 -12 41 5 15 15 20 31 17 66 -1 25 1 46 6 46 5 0 28 -26 51 -57 24 -32 46
-59 51 -61 4 -2 7 -23 7 -46 0 -45 13 -66 41 -66 37 0 41 24 41 206 -1 181 -6
204 -42 204 -29 0 -39 -23 -42 -98 l-3 -72 -54 71 c-83 108 -93 115 -125 84z"/>
</g>
</svg>
