<?xml version="1.0" encoding="utf-8"?>
<!-- Generator: Adobe Illustrator 19.2.1, SVG Export Plug-In . SVG Version: 6.00 Build 0)  -->
<svg version="1.1" id="Layer_1" xmlns="http://www.w3.org/2000/svg" xmlns:xlink="http://www.w3.org/1999/xlink" x="0px" y="0px"
	 viewBox="0 0 329.5 257.9" style="enable-background:new 0 0 329.5 257.9;" xml:space="preserve">
<style type="text/css">
	.st0{fill:#F9F9F9;}
</style>
<g id="HIxkdj_1_">
	
		<image style="overflow:visible;" width="564" height="821" id="HIxkdj" xlink:href="AFDAC36EF4762880.jpg"  transform="matrix(1 0 0 1 -1246.6666 -534)">
	</image>
</g>
<g>
	<path class="st0" d="M42.1,110.2c8.6,0,14.4,1.6,14.4,4.5v8c0,1.1-0.4,3.1-3.9,3.1h-0.8c-1.7,0-5.4-1.1-8.4-1.1
		c-2.5,0-4.5,0.8-4.5,4.2c0,3.2,0.9,4.9,5,8.2c12.4,10.2,14.9,17.5,14.9,25.9c0,4.8-0.1,9.1-2.8,13.2c-3.4,5.2-8.8,7.2-11.1,7.8
		c-2.8,0.7-6.8,1.1-10,1.1c-7.7,0-15.2-1.5-15.2-5.6v-8c0-1.2,1-2.5,3.8-2.5c2.7,0,5,1.6,10.9,1.6c2.9,0,6.9-2.3,6.9-5.5
		c0-2.4-0.1-4.2-6.4-10.4c-9.7-9.5-14.2-13.8-14.2-22.3C20.6,111.8,33.8,110.2,42.1,110.2z"/>
	<path class="st0" d="M71.6,139.2c0-16.7,1.6-29,23.5-29c20.9,0,22.3,12.1,22.3,28.6c0,6.2,0.3,12.4,0.3,17.9
		c0,16.4-2.6,28.4-22.6,28.4c-21.9,0-23.5-12.3-23.5-28.9c0-2.8,0.1-5.6,0.1-8.5C71.7,144.7,71.6,141.9,71.6,139.2z M89.3,130.5
		v32.7c0,3.1,0,7.3,5.2,7.3c5.2,0,5.2-4.2,5.2-7.3v-32.7c0-2.6,0-5.7-5.2-5.7C89.3,124.8,89.3,127.9,89.3,130.5z"/>
	<path class="st0" d="M146.9,160.9v15.3c0,4.2,0,8.3-6.2,8.3h-5.2c-6.2,0-6.2-4.2-6.2-8.3v-57.1c0-4.2,0-8.3,6.2-8.3H158
		c11.2,0,17.6,9.1,17.6,23.7c0,5.8-1.7,13.6-3.2,16.8c-3.3,7.1-13.2,8.1-19,8.1c-2.6,0-3.8-0.2-3.8-0.2
		C147,159.2,146.9,160,146.9,160.9z M146.8,129.9c0,1.4,0.1,3.1,0.1,5.3c0,2.1-0.1,3.9-0.1,5.2c0,3.4,0.6,4.1,4.8,4.1
		c5.5,0,5.7-4.6,5.7-9.2c0-4.7-1-10.4-5.7-10.4C147.4,124.8,146.8,126.1,146.8,129.9z"/>
	<path class="st0" d="M202,132.1c0,5.7,0,5.7,5.7,5.7s5.7,0,5.7-5.4c0-13.3,0-13.3,0-13.3c0-4.2,0-8.3,6.2-8.3h5.2
		c6.2,0,6.2,4.2,6.2,8.3v57.1c0,4.2,0,8.3-6.2,8.3h-5.2c-6.2,0-6.2-4.2-6.2-8.3v-15.6c0-6.9-0.4-7.3-5.7-7.3h-1.1
		c-3.3,0-4.6,0-4.6,5.3v2c0,15.6,0,15.6,0,15.6c0,4.2,0,8.3-6.2,8.3h-5.2c-6.2,0-6.2-4.2-6.2-8.3v-57.1c0-4.2,0-8.3,6.2-8.3h5.2
		c6.2,0,6.2,4.2,6.2,8.3V132.1z"/>
	<path class="st0" d="M262.8,176.2c0,4.2,0,8.3-6.2,8.3h-5.2c-6.2,0-6.2-4.2-6.2-8.3v-57.1c0-4.2,0-8.3,6.2-8.3h5.2
		c6.2,0,6.2,4.2,6.2,8.3V176.2z"/>
	<path class="st0" d="M323.9,179.3c0,4.8-3.2,5.2-9.1,5.2h-5.5c-6.4,0-3.2-15.6-7.4-15.6h-8.3c-4.2,0-1.8,15.6-8,15.6h-4.9
		c-5.4,0-8.6-0.4-8.6-5.2c0-6.2,2.5-11.7,10.6-60.3c0.8-5.2,2.9-8.3,7.1-8.3h16c4.2,0,6.2,3.1,7.3,8.3
		C320.1,161.7,323.9,173.1,323.9,179.3z M293.7,151.7c0,1.7,0.7,1.7,4.1,1.7c3.2,0,4.1,0,4.1-1.6c0-0.4,0-0.9-0.1-1.7
		c-1.2-10.2-1.7-22.8-3.9-22.8c-2.2,0-2.9,12.5-3.9,22.8C293.7,150.8,293.7,151.3,293.7,151.7z"/>
</g>
<g>
	<path class="st0" d="M47.5,226.3h-5.7l-1.1,3.8h-4.5l5.9-17.4h5.4l5.9,17.4h-4.7L47.5,226.3z M42.7,223.1h4l-1.9-6.7h-0.1
		L42.7,223.1z"/>
	<path class="st0" d="M66.8,230.1h-4.4v-17.4h7.5c4.3,0,6.7,2.1,6.7,5.7c0,2.1-1.1,4.1-3,4.9l3.5,6.7h-5l-3-6.1h-2.3V230.1z
		 M66.8,221h2.6c1.6,0,2.6-1,2.6-2.5c0-1.5-1-2.5-2.6-2.5h-2.6V221z"/>
	<path class="st0" d="M90.2,230.1v-13.8h-4.8v-3.6h14v3.6h-4.8v13.8H90.2z"/>
	<path class="st0" d="M128,212.7c5.3,0,8.4,3.1,8.4,8.6c0,5.6-3.1,8.8-8.4,8.8h-7.1v-17.4H128z M125.4,226.6h2.1
		c2.9,0,4.4-1.7,4.4-5.2c0-3.3-1.6-5-4.4-5h-2.1V226.6z"/>
	<path class="st0" d="M145.9,230.1v-17.4h4.4v17.4H145.9z"/>
	<path class="st0" d="M164.8,230.1h-4.4v-17.4h7.5c4.3,0,6.7,2.1,6.7,5.7c0,2.1-1.1,4.1-3,4.9l3.5,6.7h-5l-3-6.1h-2.3V230.1z
		 M164.8,221h2.6c1.6,0,2.6-1,2.6-2.5c0-1.5-1-2.5-2.6-2.5h-2.6V221z"/>
	<path class="st0" d="M196.1,230.1h-11.9v-17.4h11.9v3.6h-7.5v3.5h7.1v3.3h-7.1v3.5h7.5V230.1z"/>
	<path class="st0" d="M205.5,221.4c0-5.7,3.3-9,8.5-9c4.4,0,7.7,2.8,7.9,7h-4.3c-0.2-2.1-1.7-3.4-3.6-3.4c-2.4,0-3.9,2.1-3.9,5.4
		c0,3.4,1.5,5.5,4,5.5c1.9,0,3.4-1.3,3.6-3.3h4.3c-0.2,4.1-3.4,6.9-7.9,6.9C208.8,230.4,205.5,227.1,205.5,221.4z"/>
	<path class="st0" d="M235,230.1v-13.8h-4.8v-3.6h14v3.6h-4.8v13.8H235z"/>
	<path class="st0" d="M269.3,221.4c0,5.6-3.3,9-8.6,9c-5.3,0-8.6-3.5-8.6-9c0-5.6,3.3-9,8.6-9C266,212.4,269.3,215.9,269.3,221.4z
		 M256.6,221.4c0,3.3,1.6,5.4,4.1,5.4c2.5,0,4.1-2.1,4.1-5.4c0-3.3-1.6-5.4-4.1-5.4C258.3,216,256.6,218.1,256.6,221.4z"/>
	<path class="st0" d="M283.3,230.1h-4.4v-17.4h7.5c4.3,0,6.7,2.1,6.7,5.7c0,2.1-1.1,4.1-3,4.9l3.5,6.7h-5l-3-6.1h-2.3V230.1z
		 M283.3,221h2.6c1.6,0,2.6-1,2.6-2.5c0-1.5-1-2.5-2.6-2.5h-2.6V221z"/>
</g>
<g>
	<path class="st0" d="M23,87c-6.2,0-6.2-4.2-6.2-8.3V63c0-5.6-5.4-18.6-7.3-23l-0.3-0.7c-2.1-4.7-8.2-20.5-8.2-23.4
		c0-2.7,2.3-2.7,3-2.7h11.8c3.3,0,4.4,4.5,5.2,8.3c0.7,3.3,4.2,15,4.4,15.9c0.1,0.7,0.6,1.1,1,1.1c0.5,0,0.9-0.3,1-1
		c0.1-0.9,3.2-12.7,4.1-16c0.9-3.8,2.2-8.3,5.9-8.3h9.2c3.1,0,4.3,0,4.3,2.7c0,2.9-6,18.8-8.1,23.4c-0.9,2.1-2.7,6.9-4.9,12.3
		c-3.2,8.1-3.5,9.1-3.5,18.3v9.2c0,4.1,0,7.9-6.2,7.9H23z"/>
	<path class="st0" d="M81.6,67.9c0.2,2.3,2.3,3.4,4.4,3.4c5.9,0,7.9-0.2,10.1-0.2c4.4,0,5.7,1.2,5.7,4.4v7.3c0,3.1-1,4.2-4.2,4.2
		H70.2C64,87,64,80.7,64,78.6V21.5c0-4.2,0-8.3,6.2-8.3H97c2.6,0,4.9,1,4.9,3.1v8.8c0,2.5-2.1,2.6-4.7,2.6c-4.1,0-7.3-0.2-9.9-0.2
		c-5.7,0-5.7,2.1-5.7,5.4c0,6.8,0,8.5,5.2,8.5c6.4,0,7.5-0.2,9.9-0.2c3.6,0,3.8,3.6,3.8,4.8v6.6c0,3.1-2.2,3.3-4.8,3.3
		c-5.3,0-8.6-0.2-10.8-0.2c-3.3,0-3.3,1.5-3.3,4.9V67.9z"/>
	<path class="st0" d="M146.9,71.9c4.4,0,4.9,2.3,4.9,5.4v1.4c0,4.2,0,8.3-6.2,8.3h-23.5c-6.2,0-6.2-4.2-6.2-8.3V21.5
		c0-4.2,0-8.3,6.2-8.3h5.2c6.2,0,6.2,4.2,6.2,8.3v44.8c0,2.5,0,5.7,3.2,5.8C142.2,72.1,144.7,71.9,146.9,71.9z"/>
	<path class="st0" d="M182.2,67.9c0.2,2.3,2.3,3.4,4.4,3.4c5.9,0,7.9-0.2,10.1-0.2c4.4,0,5.7,1.2,5.7,4.4v7.3c0,3.1-1,4.2-4.2,4.2
		h-27.4c-6.2,0-6.2-6.2-6.2-8.3V21.5c0-4.2,0-8.3,6.2-8.3h26.8c2.6,0,4.9,1,4.9,3.1v8.8c0,2.5-2.1,2.6-4.7,2.6
		c-4.1,0-7.3-0.2-9.9-0.2c-5.7,0-5.7,2.1-5.7,5.4c0,6.8,0,8.5,5.2,8.5c6.4,0,7.5-0.2,9.9-0.2c3.6,0,3.8,3.6,3.8,4.8v6.6
		c0,3.1-2.2,3.3-4.8,3.3c-5.3,0-8.6-0.2-10.8-0.2c-3.3,0-3.3,1.5-3.3,4.9V67.9z"/>
	<path class="st0" d="M248.6,46.4c0.3,0,0.5-0.3,0.5-1V21.5c0-4.2,0-8.3,6.2-8.3h5.2c6.2,0,6.2,4.2,6.2,8.3v57.1
		c0,4.2,0,8.3-6.2,8.3c-9.4,0-10.1-1.7-11.5-4.8l-13.8-30c-0.3-0.6-0.6-1-0.8-1c-0.3,0-0.4,0.4-0.4,1l0.1,26.5c0,4.2,0,8.3-6.2,8.3
		h-5.2c-6.2,0-6.2-4.2-6.2-8.3V21.5c0-4.2,0-8.3,6.2-8.3h5.5c3.4,0,4.6,0.4,6.1,3.6l13.4,28.6C248,46.1,248.3,46.4,248.6,46.4z"/>
	<path class="st0" d="M332,81.8c0,4.8-3.2,5.2-9.1,5.2h-5.5c-6.4,0-3.2-15.6-7.4-15.6h-8.3c-4.2,0-1.8,15.6-8,15.6h-4.9
		c-5.4,0-8.6-0.4-8.6-5.2c0-6.2,2.5-11.7,10.6-60.3c0.8-5.2,2.9-8.3,7.1-8.3h16c4.2,0,6.2,3.1,7.3,8.3C328.2,64.1,332,75.5,332,81.8
		z M301.8,54.1c0,1.7,0.7,1.7,4.1,1.7c3.2,0,4.1,0,4.1-1.6c0-0.4,0-0.9-0.1-1.7c-1.2-10.2-1.7-22.8-3.9-22.8
		c-2.2,0-2.9,12.5-3.9,22.8C301.8,53.2,301.8,53.7,301.8,54.1z"/>
</g>
</svg>
