<svg 
 xmlns="http://www.w3.org/2000/svg"
 xmlns:xlink="http://www.w3.org/1999/xlink"
 width="81px" height="34px">
<path fill-rule="evenodd"  fill="rgb(4, 35, 61)"
 d="M80.921,3.228 C80.904,3.466 80.888,3.688 80.873,3.895 C80.857,4.101 80.849,4.251 80.849,4.347 L80.849,4.775 C80.849,4.997 80.857,5.226 80.873,5.464 C80.889,5.702 80.897,5.924 80.897,6.130 L80.897,6.582 L80.897,7.153 C80.897,7.439 80.889,7.748 80.873,8.081 C80.857,8.414 80.849,8.723 80.849,9.008 L80.849,9.627 L80.849,11.197 L80.849,11.911 C80.849,12.133 80.834,12.370 80.802,12.624 C80.802,12.719 80.794,12.894 80.778,13.147 C80.761,13.401 80.746,13.671 80.731,13.956 C80.714,14.242 80.698,14.519 80.683,14.789 C80.667,15.058 80.659,15.241 80.659,15.336 C80.659,15.431 80.667,15.589 80.683,15.811 C80.699,16.033 80.706,16.271 80.706,16.525 C80.706,16.779 80.714,17.025 80.731,17.262 C80.747,17.500 80.754,17.667 80.754,17.762 C80.786,18.269 80.794,18.872 80.778,19.569 C80.762,20.267 80.754,20.886 80.754,21.425 C80.754,22.028 80.762,22.749 80.778,23.589 C80.794,24.430 80.802,25.167 80.802,25.801 C80.802,25.929 80.794,26.048 80.778,26.158 C80.762,26.269 80.754,26.372 80.754,26.468 C80.722,26.626 80.699,26.777 80.683,26.919 C80.667,27.062 80.659,27.213 80.659,27.371 C80.659,27.467 80.667,27.681 80.683,28.014 C80.699,28.347 80.706,28.561 80.706,28.656 C80.706,28.783 80.722,29.005 80.754,29.322 C80.787,29.639 80.819,29.980 80.849,30.345 C80.882,30.709 80.914,31.058 80.945,31.391 C80.977,31.724 80.993,31.954 80.993,32.081 C80.993,32.208 80.985,32.359 80.968,32.533 C80.952,32.707 80.888,32.882 80.778,33.056 C80.667,33.231 80.493,33.382 80.255,33.508 C80.017,33.635 79.675,33.698 79.231,33.698 L78.850,33.698 C78.723,33.698 78.596,33.683 78.469,33.651 C78.406,33.651 78.255,33.659 78.017,33.675 C77.778,33.691 77.628,33.698 77.564,33.698 C77.437,33.698 77.159,33.683 76.731,33.651 C76.303,33.619 76.025,33.603 75.898,33.603 C75.803,33.603 75.612,33.619 75.327,33.651 C75.041,33.683 74.850,33.698 74.755,33.698 C74.216,33.698 73.779,33.493 73.446,33.080 C73.113,32.668 72.819,32.192 72.565,31.653 C72.470,31.431 72.383,31.256 72.304,31.130 C72.224,31.003 72.153,30.892 72.089,30.797 C72.025,30.702 71.946,30.590 71.851,30.464 C71.756,30.337 71.645,30.163 71.518,29.940 C71.232,29.560 70.962,29.163 70.708,28.751 C70.455,28.339 70.216,27.926 69.994,27.514 C69.550,26.690 69.161,26.008 68.828,25.469 C68.495,24.929 68.312,24.628 68.280,24.565 C68.185,24.406 68.082,24.256 67.971,24.113 C67.860,23.970 67.741,23.819 67.614,23.661 C67.519,23.502 67.423,23.336 67.328,23.161 C67.233,22.987 67.122,22.820 66.995,22.662 L66.518,21.996 L66.043,21.330 L65.471,20.331 C65.313,20.077 65.146,19.807 64.971,19.522 C64.797,19.236 64.630,18.967 64.471,18.713 C64.281,18.396 64.107,18.079 63.948,17.762 L63.472,16.810 C63.408,16.684 63.337,16.565 63.257,16.454 C63.178,16.343 63.091,16.239 62.995,16.144 C62.900,16.081 62.773,15.994 62.614,15.883 C62.456,15.772 62.313,15.716 62.186,15.716 C62.155,15.716 62.059,15.756 61.901,15.835 C61.741,15.915 61.631,16.176 61.567,16.620 C61.567,16.715 61.559,16.874 61.543,17.096 C61.528,17.318 61.512,17.564 61.495,17.833 C61.480,18.103 61.464,18.357 61.448,18.595 C61.432,18.832 61.424,18.999 61.424,19.094 C61.424,19.189 61.432,19.403 61.448,19.736 C61.464,20.069 61.472,20.299 61.472,20.426 C61.472,20.490 61.464,20.680 61.448,20.997 C61.432,21.314 61.424,21.520 61.424,21.615 L61.424,22.709 C61.424,22.773 61.417,22.955 61.400,23.256 C61.385,23.558 61.377,23.756 61.377,23.851 L61.377,24.160 C61.377,24.303 61.392,24.454 61.424,24.612 C61.456,24.771 61.472,25.080 61.472,25.540 L61.472,26.610 C61.472,26.705 61.487,26.959 61.520,27.371 C61.551,27.784 61.567,28.053 61.567,28.180 C61.599,28.307 61.607,28.577 61.591,28.989 C61.575,29.401 61.567,29.687 61.567,29.845 C61.567,30.067 61.583,30.226 61.615,30.321 C61.615,30.448 61.646,30.709 61.710,31.106 C61.774,31.503 61.805,31.764 61.805,31.891 C61.805,32.272 61.631,32.612 61.282,32.913 C60.932,33.215 60.695,33.382 60.567,33.413 C60.504,33.445 60.353,33.453 60.115,33.437 C59.877,33.421 59.726,33.413 59.663,33.413 C59.568,33.413 59.337,33.445 58.973,33.508 C58.607,33.572 58.361,33.603 58.234,33.603 C58.171,33.635 57.996,33.651 57.711,33.651 L57.187,33.651 C57.060,33.651 56.782,33.667 56.354,33.698 C55.925,33.730 55.647,33.746 55.521,33.746 C55.140,33.746 54.846,33.707 54.640,33.627 C54.433,33.548 54.299,33.477 54.235,33.413 C53.918,33.191 53.743,32.985 53.712,32.795 C53.679,32.604 53.664,32.414 53.664,32.224 L53.664,31.724 L53.664,30.987 L53.664,30.226 L53.664,29.702 C53.664,29.607 53.672,29.433 53.687,29.179 C53.704,28.926 53.712,28.656 53.712,28.371 C53.712,28.085 53.720,27.807 53.735,27.538 C53.751,27.269 53.759,27.086 53.759,26.991 C53.759,26.896 53.751,26.674 53.735,26.325 C53.720,25.976 53.712,25.738 53.712,25.612 L53.712,24.422 C53.712,24.359 53.720,24.216 53.735,23.994 C53.751,23.772 53.759,23.542 53.759,23.304 C53.759,23.066 53.767,22.844 53.782,22.638 C53.799,22.432 53.807,22.281 53.807,22.186 C53.807,22.123 53.791,21.909 53.759,21.544 C53.727,21.179 53.712,20.949 53.712,20.854 C53.679,20.632 53.664,20.418 53.664,20.212 L53.664,19.617 C53.664,18.983 53.672,18.357 53.687,17.738 C53.704,17.120 53.727,16.509 53.759,15.906 C53.823,15.399 53.854,15.090 53.854,14.979 L53.854,14.575 C53.854,14.130 53.830,13.686 53.782,13.242 C53.735,12.799 53.695,12.354 53.664,11.911 L53.664,11.340 C53.664,11.054 53.672,10.753 53.687,10.436 C53.704,10.119 53.712,9.817 53.712,9.532 L53.712,8.913 C53.712,8.818 53.704,8.636 53.687,8.366 C53.672,8.096 53.664,7.803 53.664,7.486 C53.664,7.169 53.656,6.875 53.640,6.606 C53.624,6.336 53.616,6.138 53.616,6.011 C53.616,5.948 53.624,5.774 53.640,5.488 C53.656,5.203 53.664,5.028 53.664,4.965 C53.664,4.901 53.656,4.767 53.640,4.561 C53.624,4.354 53.616,4.219 53.616,4.156 L53.616,3.538 C53.616,3.443 53.592,3.213 53.544,2.848 C53.497,2.483 53.474,2.237 53.474,2.110 L53.474,1.540 C53.474,1.350 53.505,1.175 53.569,1.016 C53.632,0.858 53.743,0.691 53.902,0.517 C54.061,0.343 54.267,0.255 54.521,0.255 C54.584,0.255 54.743,0.279 54.997,0.327 C55.251,0.374 55.426,0.398 55.521,0.398 L55.806,0.398 C55.902,0.366 56.044,0.350 56.235,0.350 L56.568,0.350 L56.949,0.350 L57.044,0.398 L57.330,0.398 L57.520,0.398 C57.616,0.398 57.727,0.382 57.854,0.350 L58.472,0.350 C58.631,0.350 58.885,0.358 59.235,0.374 C59.583,0.391 59.837,0.431 59.996,0.493 C60.060,0.525 60.123,0.548 60.186,0.564 C60.250,0.580 60.313,0.604 60.377,0.636 C60.536,0.699 60.687,0.715 60.829,0.683 C60.972,0.651 61.123,0.667 61.282,0.731 C61.440,0.795 61.615,0.906 61.805,1.064 C61.996,1.222 62.107,1.318 62.138,1.350 C62.234,1.476 62.432,1.754 62.734,2.182 C63.036,2.610 63.337,3.070 63.638,3.561 C63.940,4.053 64.225,4.513 64.495,4.941 C64.765,5.369 64.932,5.631 64.995,5.726 C65.122,5.853 65.249,6.011 65.376,6.202 C65.471,6.360 65.559,6.503 65.637,6.630 C65.718,6.757 65.805,6.884 65.900,7.011 C66.122,7.391 66.305,7.692 66.448,7.914 C66.590,8.136 66.709,8.327 66.804,8.485 C66.899,8.644 66.979,8.779 67.042,8.889 C67.106,9.001 67.169,9.136 67.233,9.294 C67.391,9.611 67.590,9.952 67.828,10.317 C68.066,10.682 68.312,11.022 68.566,11.340 C69.010,12.005 69.438,12.688 69.851,13.385 C70.264,14.083 70.645,14.796 70.994,15.526 C71.057,15.653 71.208,15.923 71.446,16.335 C71.684,16.747 71.835,17.032 71.899,17.191 L72.327,17.833 C72.486,18.071 72.598,18.190 72.660,18.190 C72.915,18.190 73.049,17.960 73.065,17.500 C73.081,17.040 73.089,16.589 73.089,16.144 C73.089,16.049 73.097,15.835 73.113,15.502 C73.129,15.169 73.137,14.955 73.137,14.860 C73.137,14.701 73.129,14.551 73.113,14.408 C73.097,14.265 73.089,14.115 73.089,13.956 C73.089,13.829 73.105,13.583 73.137,13.219 C73.168,12.854 73.184,12.608 73.184,12.481 C73.184,12.354 73.160,12.069 73.113,11.625 C73.065,11.181 73.042,10.879 73.042,10.721 C73.042,10.658 73.049,10.531 73.065,10.341 C73.082,10.150 73.097,9.952 73.113,9.746 C73.129,9.540 73.144,9.341 73.160,9.151 C73.176,8.961 73.184,8.818 73.184,8.723 C73.184,8.628 73.176,8.469 73.160,8.247 C73.144,8.025 73.129,7.796 73.113,7.558 C73.097,7.320 73.081,7.090 73.065,6.868 C73.049,6.646 73.042,6.487 73.042,6.392 L73.042,5.702 L73.042,4.656 L73.042,3.633 L73.042,2.919 C73.042,2.856 73.026,2.658 72.994,2.325 C72.962,1.991 72.946,1.762 72.946,1.635 C72.946,1.286 73.042,1.024 73.232,0.850 C73.422,0.676 73.581,0.557 73.708,0.493 C73.772,0.462 73.882,0.445 74.041,0.445 L74.993,0.445 L76.231,0.445 L76.564,0.445 C76.723,0.445 76.898,0.462 77.089,0.493 C77.247,0.493 77.414,0.501 77.588,0.517 C77.763,0.533 77.881,0.541 77.945,0.541 C78.104,0.541 78.263,0.533 78.421,0.517 C78.580,0.501 78.739,0.493 78.897,0.493 C78.961,0.493 79.103,0.477 79.326,0.445 C79.548,0.414 79.691,0.398 79.754,0.398 C80.009,0.398 80.278,0.533 80.564,0.802 C80.849,1.072 80.993,1.524 80.993,2.158 C80.993,2.253 80.985,2.396 80.968,2.586 C80.952,2.777 80.937,2.991 80.921,3.228 ZM50.617,13.052 C50.585,13.401 50.546,13.702 50.498,13.956 C50.451,14.210 50.426,14.353 50.426,14.384 C50.426,14.416 50.395,14.535 50.331,14.741 C50.267,14.947 50.197,15.177 50.117,15.431 C50.037,15.685 49.942,15.954 49.831,16.239 C49.720,16.525 49.617,16.763 49.522,16.953 C49.458,17.080 49.395,17.191 49.332,17.286 C49.268,17.381 49.204,17.492 49.141,17.619 C49.014,17.810 48.919,18.000 48.855,18.190 C48.792,18.380 48.697,18.571 48.570,18.761 C48.506,18.888 48.427,18.999 48.332,19.094 C48.236,19.189 48.157,19.300 48.094,19.427 C48.030,19.554 47.959,19.673 47.879,19.784 C47.800,19.895 47.713,20.014 47.618,20.140 C47.554,20.236 47.475,20.323 47.380,20.402 C47.284,20.481 47.205,20.569 47.141,20.664 C47.046,20.759 46.958,20.862 46.880,20.973 C46.800,21.084 46.729,21.187 46.665,21.282 C46.506,21.473 46.340,21.655 46.165,21.829 C45.991,22.004 45.824,22.186 45.666,22.377 L45.094,23.090 C44.872,23.344 44.634,23.589 44.380,23.827 C44.126,24.065 43.872,24.311 43.618,24.565 C43.396,24.755 43.174,24.937 42.951,25.112 C42.730,25.286 42.523,25.469 42.333,25.659 C42.269,25.722 42.118,25.841 41.880,26.016 C41.642,26.190 41.524,26.293 41.524,26.325 C41.524,26.388 41.626,26.444 41.832,26.491 C42.039,26.539 42.206,26.563 42.333,26.563 C42.396,26.563 42.562,26.547 42.833,26.515 C43.102,26.483 43.285,26.468 43.380,26.468 C43.443,26.468 43.563,26.476 43.737,26.491 C43.912,26.507 44.094,26.515 44.285,26.515 C44.475,26.515 44.657,26.523 44.832,26.539 C45.007,26.555 45.141,26.563 45.237,26.563 C45.332,26.563 45.554,26.555 45.904,26.539 C46.253,26.523 46.491,26.515 46.618,26.515 L48.236,26.515 C48.395,26.515 48.609,26.523 48.879,26.539 C49.149,26.555 49.411,26.610 49.665,26.705 C49.919,26.801 50.133,26.959 50.308,27.181 C50.482,27.403 50.569,27.705 50.569,28.085 C50.569,28.307 50.546,28.529 50.498,28.751 C50.451,28.973 50.426,29.195 50.426,29.417 C50.426,29.481 50.442,29.639 50.474,29.893 C50.506,30.147 50.522,30.305 50.522,30.368 C50.522,30.527 50.513,30.678 50.498,30.820 C50.482,30.963 50.474,31.114 50.474,31.272 C50.474,31.336 50.482,31.471 50.498,31.677 C50.513,31.883 50.522,32.018 50.522,32.081 C50.522,32.398 50.339,32.755 49.974,33.151 C49.609,33.548 49.315,33.778 49.093,33.841 C49.030,33.873 48.800,33.889 48.403,33.889 L47.713,33.889 C47.649,33.889 47.482,33.881 47.213,33.865 C46.943,33.849 46.729,33.826 46.570,33.794 C46.316,33.762 46.086,33.746 45.879,33.746 L45.189,33.746 L44.618,33.746 C44.332,33.746 44.031,33.754 43.714,33.770 C43.396,33.786 43.094,33.794 42.809,33.794 L42.190,33.794 C42.031,33.794 41.722,33.778 41.261,33.746 C40.801,33.715 40.492,33.698 40.333,33.698 C40.238,33.698 39.992,33.707 39.595,33.722 C39.198,33.738 38.937,33.746 38.809,33.746 C38.460,33.746 38.032,33.754 37.524,33.770 C37.016,33.786 36.588,33.794 36.239,33.794 L36.048,33.794 C35.984,33.794 35.850,33.786 35.643,33.770 C35.437,33.754 35.223,33.746 35.000,33.746 C34.778,33.746 34.572,33.738 34.382,33.722 C34.191,33.707 34.049,33.698 33.953,33.698 C33.826,33.698 33.556,33.715 33.143,33.746 C32.731,33.778 32.461,33.794 32.334,33.794 C32.239,33.794 32.001,33.786 31.621,33.770 C31.239,33.754 30.986,33.746 30.858,33.746 C30.732,33.746 30.469,33.762 30.072,33.794 C29.676,33.826 29.414,33.841 29.287,33.841 L28.668,33.841 C28.192,33.841 27.915,33.691 27.835,33.389 C27.756,33.088 27.716,32.763 27.716,32.414 C27.716,32.287 27.700,32.034 27.669,31.653 C27.637,31.272 27.621,31.019 27.621,30.892 C27.621,30.480 27.669,30.170 27.764,29.964 C27.859,29.758 27.938,29.607 28.002,29.512 C28.033,29.481 28.184,29.346 28.454,29.108 C28.724,28.870 29.026,28.608 29.359,28.323 C29.692,28.037 30.010,27.776 30.311,27.538 C30.612,27.300 30.811,27.150 30.906,27.086 C31.001,27.022 31.089,26.959 31.168,26.896 C31.247,26.832 31.319,26.769 31.382,26.705 C31.478,26.642 31.565,26.563 31.644,26.468 C31.723,26.372 31.811,26.293 31.906,26.230 C32.001,26.166 32.105,26.095 32.215,26.016 C32.326,25.936 32.446,25.865 32.572,25.801 C33.048,25.484 33.445,25.167 33.763,24.850 C33.921,24.692 34.072,24.533 34.215,24.374 C34.358,24.216 34.508,24.057 34.667,23.899 C34.731,23.835 34.857,23.724 35.048,23.566 C35.238,23.407 35.437,23.249 35.643,23.090 C35.850,22.932 36.056,22.781 36.262,22.638 C36.468,22.496 36.603,22.392 36.667,22.329 C36.952,22.139 37.143,22.004 37.238,21.925 C37.333,21.845 37.477,21.694 37.667,21.473 C37.730,21.409 37.913,21.243 38.214,20.973 C38.516,20.704 38.714,20.521 38.809,20.426 C38.937,20.299 39.040,20.164 39.119,20.022 C39.198,19.879 39.301,19.744 39.429,19.617 C39.524,19.490 39.667,19.332 39.857,19.141 C40.333,18.666 40.761,18.206 41.142,17.762 C41.524,17.318 41.825,16.874 42.047,16.430 C42.142,16.176 42.253,15.970 42.380,15.811 C42.444,15.685 42.507,15.573 42.571,15.479 C42.635,15.383 42.698,15.272 42.761,15.146 C42.825,14.892 42.889,14.701 42.951,14.575 C42.984,14.384 43.063,14.210 43.189,14.051 C43.189,13.988 43.197,13.932 43.213,13.885 C43.230,13.837 43.237,13.782 43.237,13.718 C43.301,13.401 43.333,13.187 43.333,13.076 L43.333,12.481 C43.333,12.418 43.348,12.315 43.380,12.172 C43.412,12.030 43.428,11.926 43.428,11.863 C43.428,11.768 43.396,11.578 43.333,11.292 C43.269,11.007 43.222,10.816 43.189,10.721 C43.031,10.182 42.785,9.667 42.452,9.175 C42.118,8.684 41.714,8.343 41.237,8.152 L40.809,8.010 C40.746,7.977 40.674,7.946 40.595,7.914 C40.515,7.883 40.428,7.851 40.333,7.819 C40.269,7.787 40.063,7.724 39.714,7.629 C39.365,7.534 39.047,7.486 38.762,7.486 C38.666,7.486 38.484,7.510 38.214,7.558 C37.945,7.605 37.698,7.661 37.477,7.724 C37.223,7.788 37.047,7.852 36.952,7.914 C36.857,7.979 36.635,8.089 36.286,8.247 C36.001,8.406 35.802,8.533 35.691,8.628 C35.580,8.723 35.445,8.898 35.286,9.151 C35.064,9.469 34.905,9.730 34.810,9.936 C34.715,10.142 34.667,10.436 34.667,10.816 C34.667,10.880 34.683,11.054 34.715,11.340 C34.747,11.625 34.762,11.815 34.762,11.911 C34.762,12.005 34.747,12.109 34.715,12.220 C34.683,12.331 34.651,12.434 34.620,12.529 L34.525,12.909 C34.461,13.068 34.262,13.235 33.929,13.409 C33.596,13.583 33.239,13.671 32.858,13.671 C32.668,13.671 32.469,13.655 32.263,13.623 C32.057,13.591 31.858,13.576 31.668,13.576 C31.604,13.576 31.445,13.583 31.191,13.599 C30.938,13.615 30.763,13.623 30.668,13.623 C30.509,13.623 30.358,13.615 30.215,13.599 C30.072,13.583 29.922,13.576 29.764,13.576 L29.430,13.576 C29.144,13.576 28.914,13.488 28.740,13.314 C28.565,13.139 28.414,12.918 28.287,12.648 C28.161,12.378 28.073,12.101 28.025,11.815 C27.978,11.530 27.954,11.276 27.954,11.054 C27.954,10.896 27.963,10.721 27.978,10.531 C27.994,10.341 28.018,10.150 28.050,9.960 L28.050,9.413 C28.050,9.238 28.065,9.056 28.097,8.866 C28.129,8.581 28.184,8.303 28.263,8.033 C28.343,7.764 28.430,7.502 28.526,7.248 C28.652,6.868 28.772,6.543 28.883,6.273 C28.994,6.004 29.113,5.750 29.239,5.512 C29.367,5.274 29.518,5.020 29.692,4.751 C29.867,4.481 30.097,4.156 30.382,3.776 C30.858,3.141 31.342,2.658 31.834,2.325 C32.326,1.991 32.731,1.746 33.048,1.587 C33.176,1.492 33.406,1.381 33.739,1.254 C34.072,1.127 34.437,1.008 34.834,0.897 C35.231,0.786 35.651,0.676 36.096,0.564 C36.540,0.453 36.937,0.382 37.286,0.350 L38.762,0.350 C38.857,0.350 39.103,0.343 39.500,0.327 C39.897,0.311 40.159,0.303 40.285,0.303 C40.539,0.303 40.849,0.334 41.214,0.398 C41.579,0.462 41.960,0.533 42.357,0.612 C42.753,0.691 43.134,0.779 43.499,0.874 C43.865,0.969 44.158,1.064 44.380,1.159 C44.888,1.350 45.387,1.595 45.879,1.896 C46.371,2.198 46.832,2.531 47.260,2.895 C47.689,3.260 48.062,3.617 48.379,3.966 C48.697,4.315 48.935,4.632 49.093,4.917 C49.157,5.013 49.204,5.116 49.236,5.226 C49.268,5.337 49.316,5.440 49.379,5.536 L49.808,6.249 C49.998,6.598 50.141,6.931 50.236,7.248 C50.267,7.344 50.315,7.549 50.379,7.867 C50.442,8.184 50.498,8.533 50.546,8.913 C50.593,9.294 50.641,9.683 50.689,10.079 C50.736,10.475 50.760,10.800 50.760,11.054 C50.760,11.308 50.744,11.617 50.712,11.982 C50.680,12.347 50.649,12.703 50.617,13.052 ZM25.765,17.714 C25.605,18.095 25.470,18.412 25.360,18.666 C25.249,18.919 25.193,19.062 25.193,19.094 C25.066,19.284 24.939,19.459 24.812,19.617 C24.686,19.776 24.543,19.950 24.384,20.140 C24.225,20.331 24.090,20.521 23.979,20.711 C23.868,20.902 23.732,21.092 23.574,21.282 C23.352,21.536 23.106,21.758 22.837,21.948 C22.567,22.139 22.146,22.424 21.575,22.805 C21.067,23.153 20.646,23.423 20.313,23.613 C19.980,23.803 19.623,23.954 19.242,24.065 C18.861,24.176 18.417,24.279 17.909,24.374 C17.401,24.470 16.750,24.581 15.957,24.707 C15.735,24.739 15.362,24.771 14.838,24.803 C14.314,24.834 13.957,24.850 13.767,24.850 C13.671,24.850 13.521,24.842 13.315,24.827 C13.108,24.810 12.878,24.787 12.624,24.755 C12.370,24.724 12.132,24.699 11.910,24.684 C11.688,24.668 11.529,24.660 11.434,24.660 L10.767,24.660 C10.387,24.660 10.133,24.676 10.006,24.707 C9.498,24.803 9.173,24.898 9.030,24.993 C8.887,25.088 8.736,25.215 8.577,25.374 C8.323,25.627 8.172,25.817 8.125,25.945 C8.077,26.071 8.021,26.341 7.958,26.753 C7.926,26.975 7.903,27.134 7.887,27.229 C7.871,27.324 7.863,27.403 7.863,27.467 C7.863,27.498 7.871,27.593 7.887,27.752 C7.903,27.911 7.926,28.093 7.958,28.299 C7.990,28.505 8.013,28.704 8.030,28.894 C8.046,29.084 8.054,29.227 8.054,29.322 C8.085,29.449 8.101,29.560 8.101,29.655 L8.101,30.226 C8.101,30.321 8.117,30.551 8.149,30.916 C8.180,31.280 8.197,31.510 8.197,31.606 C8.197,32.049 8.164,32.406 8.101,32.676 C8.038,32.945 7.895,33.167 7.672,33.342 C7.450,33.516 7.117,33.635 6.673,33.698 C6.228,33.762 5.625,33.794 4.864,33.794 C4.768,33.794 4.609,33.786 4.388,33.770 C4.165,33.754 3.927,33.746 3.673,33.746 C3.420,33.746 3.181,33.738 2.959,33.722 C2.737,33.707 2.578,33.698 2.483,33.698 C2.388,33.698 2.190,33.715 1.888,33.746 C1.586,33.778 1.388,33.794 1.293,33.794 C1.038,33.794 0.769,33.627 0.484,33.294 C0.198,32.961 0.055,32.525 0.055,31.986 C0.055,31.827 0.062,31.534 0.079,31.106 C0.095,30.678 0.110,30.218 0.126,29.726 C0.142,29.235 0.158,28.775 0.174,28.347 C0.190,27.919 0.198,27.609 0.198,27.419 C0.198,27.260 0.182,26.935 0.150,26.444 C0.118,25.952 0.103,25.627 0.103,25.469 C0.103,25.310 0.110,25.001 0.126,24.541 C0.142,24.081 0.150,23.772 0.150,23.613 C0.150,23.486 0.142,23.217 0.126,22.805 C0.110,22.392 0.103,22.123 0.103,21.996 C0.103,21.869 0.110,21.607 0.126,21.211 C0.142,20.814 0.158,20.402 0.174,19.974 C0.190,19.546 0.205,19.134 0.221,18.737 C0.238,18.341 0.246,18.063 0.246,17.905 L0.246,16.906 L0.246,16.168 C0.246,15.962 0.277,15.748 0.341,15.526 C0.341,15.399 0.349,15.280 0.364,15.169 C0.380,15.058 0.388,14.955 0.388,14.860 C0.420,14.796 0.420,14.638 0.388,14.384 C0.356,14.130 0.341,13.972 0.341,13.909 C0.341,13.782 0.349,13.544 0.364,13.195 C0.380,12.846 0.388,12.608 0.388,12.481 C0.388,12.354 0.364,12.077 0.317,11.649 C0.269,11.221 0.246,10.943 0.246,10.816 L0.246,9.793 C0.246,9.270 0.261,8.929 0.293,8.771 C0.293,8.644 0.285,8.406 0.269,8.057 C0.253,7.708 0.246,7.470 0.246,7.344 L0.246,6.677 C0.246,6.551 0.229,6.337 0.198,6.035 C0.166,5.734 0.142,5.409 0.126,5.060 C0.110,4.711 0.087,4.378 0.055,4.061 C0.023,3.743 0.007,3.521 0.007,3.395 C0.007,2.571 0.095,1.991 0.269,1.659 C0.444,1.326 0.785,1.016 1.293,0.731 C1.483,0.636 1.634,0.564 1.745,0.517 C1.857,0.469 1.967,0.430 2.078,0.398 C2.190,0.366 2.324,0.350 2.483,0.350 L3.102,0.350 C3.166,0.350 3.356,0.334 3.673,0.303 C3.991,0.271 4.197,0.255 4.293,0.255 L4.673,0.255 L5.269,0.255 L5.863,0.255 L6.292,0.255 C6.323,0.255 6.419,0.247 6.578,0.231 C6.737,0.215 6.919,0.208 7.125,0.208 C7.331,0.208 7.522,0.200 7.696,0.184 C7.871,0.168 7.990,0.160 8.054,0.160 C8.117,0.160 8.331,0.152 8.696,0.136 C9.061,0.120 9.450,0.105 9.863,0.089 C10.275,0.073 10.648,0.057 10.982,0.041 C11.315,0.025 11.513,0.017 11.576,0.017 C11.830,0.017 12.101,0.025 12.386,0.041 C12.672,0.057 12.957,0.065 13.243,0.065 C13.941,0.097 14.512,0.120 14.957,0.136 C15.402,0.152 15.798,0.184 16.148,0.231 C16.496,0.279 16.853,0.358 17.219,0.469 C17.583,0.580 18.036,0.731 18.575,0.921 C18.925,1.048 19.202,1.151 19.409,1.231 C19.615,1.310 19.813,1.397 20.004,1.492 C20.194,1.587 20.385,1.690 20.575,1.802 C20.766,1.912 21.020,2.063 21.337,2.253 C21.876,2.571 22.257,2.800 22.480,2.943 C22.701,3.086 22.939,3.268 23.193,3.490 C23.479,3.744 23.789,4.085 24.122,4.513 C24.455,4.941 24.773,5.393 25.075,5.869 C25.376,6.344 25.638,6.820 25.860,7.296 C26.082,7.772 26.241,8.184 26.336,8.533 C26.399,8.882 26.439,9.223 26.455,9.556 C26.471,9.889 26.510,10.229 26.574,10.578 C26.669,11.022 26.725,11.474 26.741,11.934 C26.756,12.394 26.764,12.846 26.764,13.290 C26.764,14.337 26.661,15.185 26.455,15.835 C26.249,16.486 26.018,17.112 25.765,17.714 ZM19.194,11.340 C19.194,11.276 19.147,11.133 19.051,10.912 C18.956,10.690 18.861,10.452 18.766,10.198 C18.671,9.944 18.584,9.714 18.503,9.508 L18.385,9.199 C18.290,9.040 18.195,8.913 18.100,8.818 L17.718,8.438 C17.432,8.184 17.195,7.978 17.004,7.819 C16.814,7.661 16.607,7.526 16.385,7.415 C16.163,7.304 15.917,7.217 15.647,7.153 C15.377,7.090 15.036,7.011 14.624,6.915 C14.338,6.852 14.076,6.820 13.838,6.820 C13.600,6.820 13.084,6.804 12.291,6.773 C12.227,6.773 12.045,6.757 11.743,6.725 C11.442,6.693 11.259,6.677 11.196,6.677 C11.100,6.677 11.013,6.685 10.934,6.701 C10.854,6.717 10.641,6.773 10.291,6.868 C9.878,6.995 9.585,7.098 9.411,7.177 C9.235,7.256 9.037,7.470 8.815,7.819 C8.656,8.073 8.530,8.295 8.435,8.485 C8.339,8.675 8.268,8.921 8.220,9.223 C8.172,9.524 8.149,9.905 8.149,10.364 L8.149,12.243 L8.149,13.052 C8.149,13.116 8.157,13.258 8.172,13.480 C8.188,13.702 8.212,13.845 8.244,13.909 L8.244,14.456 C8.244,14.630 8.276,14.813 8.339,15.003 C8.402,15.256 8.561,15.621 8.815,16.097 C9.069,16.573 9.371,16.922 9.720,17.143 C9.752,17.175 10.069,17.294 10.672,17.500 C11.275,17.707 12.068,17.810 13.053,17.810 C13.116,17.810 13.275,17.802 13.528,17.786 C13.783,17.770 14.045,17.746 14.314,17.714 C14.584,17.683 14.846,17.651 15.100,17.619 C15.354,17.587 15.513,17.556 15.576,17.524 C15.735,17.460 15.885,17.389 16.028,17.310 C16.171,17.231 16.322,17.159 16.481,17.096 C16.830,16.937 17.060,16.834 17.171,16.787 C17.282,16.739 17.401,16.636 17.528,16.477 C17.592,16.414 17.656,16.335 17.718,16.239 L17.909,15.954 C18.036,15.795 18.162,15.660 18.290,15.550 C18.417,15.439 18.528,15.304 18.623,15.146 C18.687,15.050 18.718,14.955 18.718,14.860 C18.718,14.765 18.750,14.670 18.813,14.575 C18.972,14.035 19.076,13.560 19.123,13.147 C19.171,12.735 19.194,12.212 19.194,11.578 L19.194,11.340 Z"/>
</svg>