<svg id="Calque_1" data-name="Calque 1" xmlns="http://www.w3.org/2000/svg" viewBox="0 0 154 60"><defs><style>.cls-1{fill:#04233d;}</style></defs><title>Plan de travail 1</title><rect class="cls-1" x="91.05" y="6.58" width="0.5" height="2.51"/><rect class="cls-1" x="95.69" y="6.58" width="0.5" height="2.51"/><rect class="cls-1" x="100.34" y="6.58" width="0.5" height="2.51"/><rect class="cls-1" x="104.99" y="6.58" width="0.5" height="2.51"/><rect class="cls-1" x="109.63" y="6.58" width="0.5" height="2.51"/><rect class="cls-1" x="114.28" y="6.58" width="0.5" height="2.51"/><rect class="cls-1" x="118.92" y="6.58" width="0.5" height="2.51"/><rect class="cls-1" x="123.57" y="6.58" width="0.5" height="2.51"/><rect class="cls-1" x="128.22" y="6.58" width="0.5" height="2.51"/><path class="cls-1" d="M6.15,21.65h0V36.77H21.27V6.53h0A15.12,15.12,0,0,0,6.15,21.65Z"/><path class="cls-1" d="M26.3,21.65h0V51.89H41.42V36.77h0A15.12,15.12,0,0,0,26.3,21.65Z"/><path class="cls-1" d="M61.63,6.58h0A17.64,17.64,0,0,0,44,24.21h0A17.64,17.64,0,0,0,61.62,41.85h2.52V6.58Z"/><path class="cls-1" d="M79.29,11.6H82l5,8.74V11.6h2.44V24.14H86.83l-5.1-8.9v8.9H79.29Z"/><path class="cls-1" d="M98.93,23a5.11,5.11,0,0,1-7.13,0,5.37,5.37,0,0,1-1.17-3.49A5.4,5.4,0,0,1,91.8,16a5.06,5.06,0,0,1,7.13,0,5.4,5.4,0,0,1,1.17,3.48A5.37,5.37,0,0,1,98.93,23ZM97,21.67a3.51,3.51,0,0,0,.57-2.15A3.49,3.49,0,0,0,97,17.38a2.15,2.15,0,0,0-3.27,0,3.47,3.47,0,0,0-.57,2.14,3.49,3.49,0,0,0,.57,2.15,2.15,2.15,0,0,0,3.27,0Z"/><path class="cls-1" d="M103.82,14.87v5.59a2.94,2.94,0,0,0,.19,1.19,1.29,1.29,0,0,0,1.3.71,1.69,1.69,0,0,0,1.69-1,3.65,3.65,0,0,0,.24-1.44v-5h2.46v9.27h-2.36V22.83l-.17.26a1.7,1.7,0,0,1-.32.37,3.36,3.36,0,0,1-1.1.7,3.74,3.74,0,0,1-1.24.19,2.77,2.77,0,0,1-2.77-1.48,5.68,5.68,0,0,1-.4-2.41V14.87Z"/><path class="cls-1" d="M117.15,14.87h2.6l-3.35,9.27h-2.56l-3.33-9.27h2.72l1.93,6.84Z"/><path class="cls-1" d="M126.64,15.06a3.77,3.77,0,0,1,1.6,1.37,4.56,4.56,0,0,1,.74,1.92,11.84,11.84,0,0,1,.08,1.84h-6.75a2.22,2.22,0,0,0,1,2,2.46,2.46,0,0,0,1.34.35,1.88,1.88,0,0,0,1.85-1.06h2.48a3,3,0,0,1-.9,1.68,4.51,4.51,0,0,1-3.49,1.35,5.05,5.05,0,0,1-3.27-1.14,4.49,4.49,0,0,1-1.41-3.71,5,5,0,0,1,1.28-3.7,4.47,4.47,0,0,1,3.32-1.29A5.28,5.28,0,0,1,126.64,15.06ZM123,17.15a2.52,2.52,0,0,0-.65,1.44h4.18a2,2,0,0,0-.65-1.47,2.12,2.12,0,0,0-1.44-.5A1.92,1.92,0,0,0,123,17.15Z"/><path class="cls-1" d="M132.42,24.14H130V11.6h2.42Z"/><path class="cls-1" d="M136.74,24.14h-2.42V11.6h2.42Z"/><path class="cls-1" d="M144.44,15.06a3.77,3.77,0,0,1,1.6,1.37,4.56,4.56,0,0,1,.74,1.92,11.84,11.84,0,0,1,.08,1.84h-6.75a2.22,2.22,0,0,0,1,2,2.46,2.46,0,0,0,1.34.35,1.88,1.88,0,0,0,1.85-1.06h2.48a3,3,0,0,1-.9,1.68,4.51,4.51,0,0,1-3.49,1.35,5.05,5.05,0,0,1-3.27-1.14,4.49,4.49,0,0,1-1.41-3.71,5,5,0,0,1,1.28-3.7,4.47,4.47,0,0,1,3.32-1.29A5.28,5.28,0,0,1,144.44,15.06Zm-3.63,2.09a2.52,2.52,0,0,0-.65,1.44h4.18a2,2,0,0,0-.65-1.47,2.12,2.12,0,0,0-1.44-.5A1.92,1.92,0,0,0,140.82,17.15Z"/><path class="cls-1" d="M80.91,30.51a5.85,5.85,0,0,1,8.43.53,4.52,4.52,0,0,1,.86,2.34H87.58A3.57,3.57,0,0,0,86.94,32a2.84,2.84,0,0,0-4.28.34,5.63,5.63,0,0,0-.81,3.26,4.94,4.94,0,0,0,.85,3.16,2.67,2.67,0,0,0,2.17,1.05,2.46,2.46,0,0,0,2.06-.9,4,4,0,0,0,.65-1.45h2.6a5.65,5.65,0,0,1-1.72,3.33,5,5,0,0,1-3.55,1.28,5.32,5.32,0,0,1-4.21-1.74,7,7,0,0,1-1.53-4.78A6.93,6.93,0,0,1,80.91,30.51Z"/><path class="cls-1" d="M93.86,32.47v5.59A2.94,2.94,0,0,0,94,39.25a1.29,1.29,0,0,0,1.3.71A1.69,1.69,0,0,0,97,39a3.65,3.65,0,0,0,.24-1.44v-5h2.46v9.27H97.37V40.43l-.17.26a1.7,1.7,0,0,1-.32.37,3.36,3.36,0,0,1-1.1.7,3.74,3.74,0,0,1-1.24.19,2.77,2.77,0,0,1-2.77-1.48,5.68,5.68,0,0,1-.4-2.41V32.47Z"/><path class="cls-1" d="M104.06,31.36H101.6V29.12h2.46Zm-2.46,1.11h2.46v9.27H101.6Z"/><path class="cls-1" d="M107.76,38.78a1.61,1.61,0,0,0,.33.92,2.26,2.26,0,0,0,1.68.48,2.56,2.56,0,0,0,1.14-.21.71.71,0,0,0,.08-1.26,13.93,13.93,0,0,0-2.54-.73,5.27,5.27,0,0,1-2.23-1,2.12,2.12,0,0,1-.65-1.67,2.89,2.89,0,0,1,1-2.21,4.06,4.06,0,0,1,2.84-.92,5.23,5.23,0,0,1,2.83.69,3,3,0,0,1,1.26,2.39h-2.42a1.43,1.43,0,0,0-.26-.74,1.67,1.67,0,0,0-1.36-.49,2,2,0,0,0-1.13.25.71.71,0,0,0-.34.58.63.63,0,0,0,.36.6,15.51,15.51,0,0,0,2.53.67,4.64,4.64,0,0,1,2.17,1,2.34,2.34,0,0,1,.71,1.74,2.82,2.82,0,0,1-1,2.25,6.17,6.17,0,0,1-6.41-.05,3,3,0,0,1-1-2.35Z"/><path class="cls-1" d="M117.51,31.36h-2.46V29.12h2.46Zm-2.46,1.11h2.46v9.27h-2.46Z"/><path class="cls-1" d="M126.81,33a3.07,3.07,0,0,1,.91,2.5v6.24h-2.48V36.1A2.59,2.59,0,0,0,125,35a1.36,1.36,0,0,0-1.35-.71,1.67,1.67,0,0,0-1.68,1,3.62,3.62,0,0,0-.24,1.41v5h-2.42V32.49h2.35v1.35a4.11,4.11,0,0,1,.88-1,3.05,3.05,0,0,1,1.89-.56A3.55,3.55,0,0,1,126.81,33Z"/><path class="cls-1" d="M135.5,32.66A3.77,3.77,0,0,1,137.1,34a4.56,4.56,0,0,1,.74,1.92,11.84,11.84,0,0,1,.08,1.84h-6.75a2.22,2.22,0,0,0,1,2,2.46,2.46,0,0,0,1.34.35A1.88,1.88,0,0,0,135.32,39h2.48a3,3,0,0,1-.9,1.68,4.51,4.51,0,0,1-3.49,1.35,5.05,5.05,0,0,1-3.27-1.14,4.49,4.49,0,0,1-1.41-3.71,5,5,0,0,1,1.28-3.7,4.47,4.47,0,0,1,3.32-1.29A5.28,5.28,0,0,1,135.5,32.66Zm-3.6,2.09a2.52,2.52,0,0,0-.65,1.44h4.18a2,2,0,0,0-.65-1.47,2.12,2.12,0,0,0-1.44-.5A1.92,1.92,0,0,0,131.9,34.75Z"/></svg>